<svg width="50" height="50" viewBox="0 0 50 50" fill="none" xmlns="http://www.w3.org/2000/svg">
<path d="M50 0H0V50H50V0Z" fill="#2976EA"/>
<path d="M50 9.16992H0V40.8398H50V9.16992Z" fill="#F5FAFF"/>
<path d="M31.0059 25L34.0039 19.8047H27.998L25 14.5996L22.002 19.7949H15.9961L18.9941 24.9902L15.9961 30.1855H22.002L25 35.3809L27.998 30.1855H34.0039L31.0059 25ZM31.0645 21.5039L30.0293 23.3008L28.9941 21.5039H31.0645ZM29.043 25L27.0215 28.4961H22.9785L20.957 25L22.9785 21.5039H27.0215L29.043 25ZM25 17.998L26.0352 19.7949H23.9551L25 17.998ZM18.9355 21.5039H21.0156L19.9805 23.3008L18.9355 21.5039ZM18.9355 28.4961L19.9707 26.6992L21.0059 28.4961H18.9355ZM25 32.002L23.9648 30.2051H26.0449L25 32.002ZM30.0195 26.6992L31.0547 28.4961H28.9746L30.0195 26.6992Z" fill="#2976EA"/>
</svg>
