<svg width="50" height="50" viewBox="0 0 50 50" fill="none" xmlns="http://www.w3.org/2000/svg">
<path d="M50 0H0V50H50V0Z" fill="#F5FAFF"/>
<path d="M29.7852 17.8223C25.8203 15.1856 20.4688 16.2598 17.832 20.2149C16.5039 22.1875 17.0508 24.8731 19.0235 26.1914C21.0059 27.5098 23.6719 26.9727 25 24.9903C26.3184 23.0078 28.9942 22.4805 30.9766 23.7891C32.959 25.1074 33.4961 27.793 32.168 29.7656C34.8145 25.8203 33.7402 20.4688 29.7852 17.8223Z" fill="#D80027"/>
<path d="M17.832 20.2148C16.5039 22.1875 17.0508 24.873 19.0234 26.1914C21.0059 27.5098 23.6719 26.9727 25 24.9902C26.3184 23.0078 28.9941 22.4805 30.9766 23.7891C32.959 25.1074 33.4961 27.793 32.168 29.7656C29.5312 33.7305 24.1797 34.7949 20.2246 32.1582C16.2695 29.5312 15.1953 24.1797 17.832 20.2148Z" fill="#2976EA"/>
<path d="M34.17 14.5701L35.7325 16.9236C35.8594 17.1189 35.8106 17.3924 35.6153 17.5193L35.2149 17.783C35.0196 17.9197 34.7461 17.8611 34.6192 17.6658L33.0469 15.3123C32.9102 15.117 32.9688 14.8436 33.1641 14.7166L33.5645 14.4529C33.7696 14.3162 34.043 14.3748 34.17 14.5701Z" fill="#28425F"/>
<path d="M36.5918 18.2031L38.1641 20.5566C38.3008 20.7519 38.2422 21.0253 38.0469 21.1523L37.6465 21.416C37.4512 21.5429 37.1778 21.4941 37.0508 21.2988L35.4688 18.9453C35.3321 18.7499 35.3907 18.4765 35.586 18.3495L35.9864 18.0859C36.1915 17.9492 36.4551 17.998 36.5918 18.2031Z" fill="#28425F"/>
<path d="M35.8497 13.4472L39.834 19.4335C39.9707 19.6288 39.9122 19.9022 39.7168 20.0292L39.3165 20.2929C39.1211 20.4296 38.8477 20.371 38.7208 20.1757L34.7364 14.1894C34.5997 13.994 34.6583 13.7206 34.8536 13.5936L35.254 13.33C35.4493 13.203 35.7129 13.2519 35.8497 13.4472Z" fill="#28425F"/>
<path d="M37.5196 12.3338L39.0918 14.6873C39.2286 14.8826 39.17 15.1561 38.9747 15.283L38.5743 15.5467C38.379 15.6736 38.1055 15.6248 37.9786 15.4295L36.4063 13.076C36.2696 12.8807 36.3282 12.6072 36.5235 12.4803L36.9239 12.2166C37.1192 12.0799 37.3926 12.1385 37.5196 12.3338Z" fill="#28425F"/>
<path d="M39.9414 15.9667L41.5039 18.3202C41.6309 18.5155 41.5821 18.789 41.3867 18.9159L40.9864 19.1796C40.791 19.3163 40.5176 19.2577 40.3906 19.0624L38.8281 16.7089C38.7012 16.5136 38.75 16.2401 38.9453 16.1132L39.3457 15.8495C39.541 15.7226 39.8047 15.7714 39.9414 15.9667Z" fill="#28425F"/>
<path d="M12.959 28.7107L16.9434 34.6873C17.0801 34.8826 17.0215 35.1561 16.8262 35.283L16.4258 35.5467C16.2305 35.6834 15.9571 35.6248 15.8301 35.4295L11.8458 29.4529C11.709 29.2576 11.7676 28.9842 11.9629 28.8572L12.3633 28.5936C12.5586 28.4568 12.8321 28.5154 12.959 28.7107Z" fill="#28425F"/>
<path d="M11.2891 29.8241L12.8516 32.1679C12.9883 32.3632 12.9297 32.6366 12.7344 32.7636L12.334 33.0272C12.1387 33.164 11.8653 33.1054 11.7383 32.9101L10.1758 30.5663C10.0391 30.371 10.0977 30.0976 10.293 29.9706L10.6934 29.7069C10.8887 29.58 11.1524 29.6288 11.2891 29.8241Z" fill="#28425F"/>
<path d="M13.711 33.4568L15.2735 35.8104C15.4004 36.0057 15.3516 36.2791 15.1563 36.4061L14.7559 36.6697C14.5606 36.8064 14.2872 36.7478 14.1602 36.5525L12.5879 34.199C12.4512 34.0037 12.5098 33.7303 12.7051 33.6033L13.1055 33.3396C13.3106 33.2029 13.5743 33.2615 13.711 33.4568Z" fill="#28425F"/>
<path d="M9.60942 30.9472L13.5938 36.9238C13.7305 37.1191 13.6719 37.3925 13.4766 37.5195L13.0762 37.7831C12.8809 37.9199 12.6075 37.8613 12.4805 37.666L8.49614 31.6894C8.35942 31.4941 8.41802 31.2206 8.61333 31.0937L9.01372 30.83C9.20903 30.6933 9.48247 30.7421 9.60942 30.9472Z" fill="#28425F"/>
<path d="M11.8458 20.5467L15.8301 14.5604C15.9668 14.365 16.2305 14.3064 16.4258 14.4432L16.8262 14.7068C17.0215 14.8436 17.0801 15.1072 16.9434 15.3025L12.959 21.2889C12.8321 21.4842 12.5586 21.5428 12.3633 21.4061L11.9629 21.1424C11.7676 21.0154 11.709 20.7518 11.8458 20.5467Z" fill="#28425F"/>
<path d="M10.166 19.4334L14.1504 13.4471C14.2871 13.2518 14.5508 13.1932 14.7461 13.3299L15.1465 13.5936C15.3418 13.7303 15.4004 13.9939 15.2637 14.1893L11.2793 20.1756C11.1426 20.3709 10.8789 20.4295 10.6836 20.2928L10.2832 20.0291C10.0879 19.9021 10.0391 19.6287 10.166 19.4334Z" fill="#28425F"/>
<path d="M8.49614 18.3201L12.4805 12.3338C12.6172 12.1385 12.8809 12.0799 13.0762 12.2166L13.4766 12.4803C13.6719 12.617 13.7305 12.8807 13.5938 13.076L9.60942 19.0623C9.4727 19.2576 9.20903 19.3162 9.01372 19.1795L8.61333 18.9158C8.41802 18.7889 8.35942 18.5252 8.49614 18.3201Z" fill="#28425F"/>
<path d="M33.0567 34.6873L34.6192 32.3436C34.7559 32.1482 35.0196 32.0896 35.2149 32.2264L35.6153 32.49C35.8106 32.6268 35.8692 32.8904 35.7325 33.0857L34.17 35.4295C34.0333 35.6248 33.7696 35.6834 33.5743 35.5467L33.1739 35.283C32.9786 35.1561 32.92 34.8826 33.0567 34.6873Z" fill="#28425F"/>
<path d="M35.4688 31.0643L37.041 28.701C37.1778 28.5057 37.4414 28.4471 37.6367 28.5838L38.0371 28.8475C38.2324 28.9842 38.291 29.2479 38.1543 29.4432L36.5821 31.7967C36.4453 31.992 36.1817 32.0506 35.9863 31.9139L35.586 31.6502C35.3906 31.533 35.3418 31.2693 35.4688 31.0643Z" fill="#28425F"/>
<path d="M34.7266 35.8104L36.2988 33.4568C36.4356 33.2615 36.6992 33.2029 36.8945 33.3396L37.2949 33.6033C37.4902 33.74 37.5488 34.0037 37.4121 34.199L35.8496 36.5525C35.7129 36.7478 35.4492 36.8064 35.2539 36.6697L34.8535 36.4061C34.6484 36.2791 34.5996 36.0057 34.7266 35.8104Z" fill="#28425F"/>
<path d="M37.1485 32.1775L38.7208 29.8338C38.8575 29.6385 39.1211 29.5799 39.3165 29.7166L39.7168 29.9803C39.9122 30.117 39.9708 30.3807 39.834 30.576L38.2618 32.9197C38.125 33.115 37.8614 33.1736 37.6661 33.0369L37.2657 32.7732C37.0704 32.6365 37.0118 32.3729 37.1485 32.1775Z" fill="#28425F"/>
<path d="M36.4063 36.9236L37.9786 34.5701C38.1055 34.3748 38.379 34.3162 38.5743 34.4529L38.9747 34.7166C39.17 34.8436 39.2286 35.117 39.0918 35.3123L37.5196 37.6658C37.3829 37.8611 37.1192 37.9197 36.9239 37.783L36.5235 37.5193C36.3282 37.3924 36.2696 37.1189 36.4063 36.9236Z" fill="#28425F"/>
<path d="M38.8282 33.3006L40.3907 30.9471C40.5274 30.7518 40.7911 30.6932 40.9864 30.8299L41.3868 31.0936C41.5821 31.2303 41.6407 31.4939 41.504 31.6893L39.9415 34.0428C39.8047 34.2381 39.5411 34.2967 39.3458 34.16L38.9454 33.8963C38.75 33.7596 38.6915 33.4959 38.8282 33.3006Z" fill="#28425F"/>
</svg>
