<svg width="160" height="46" viewBox="0 0 160 46" fill="none" xmlns="http://www.w3.org/2000/svg">
<path fill-rule="evenodd" clip-rule="evenodd" d="M49.3746 45.7796C51.9588 25.8371 70.433 1.26707 89.1272 0.0550898C93.0309 -0.220359 95.89 0.936527 97.7045 2.31377C100.564 4.51736 100.893 8.0982 98.9141 12.9461C95.6701 20.824 92.5361 27.1042 89.2371 36.1389C88.5773 37.8467 88.6323 39.3341 89.2371 39.4994C90.1718 39.7198 91.8763 38.6731 93.4158 37.5162C97.6495 34.2659 98.6942 28.7569 100.784 22.8072H106.557C105.952 24.5701 104.907 27.6551 104.027 30.4096C101.938 36.8 103.863 36.6898 106.062 34.9269C109.141 32.503 111.01 27.4898 112.385 22.8072H117.168C116.619 24.4599 115.794 26.9389 114.859 29.6383C114.089 31.9521 112.77 36.5796 113.649 36.5796C116.069 36.6347 119.918 31.3461 120.577 29.3629C121.402 26.8838 122.777 22.9174 122.777 22.8072H128.11C126.57 27.4347 125.471 30.3545 127.615 30.3545C130.089 30.3545 131.134 26.1126 132.234 22.8072H137.017C135.368 27.7102 133.938 31.897 132.344 36.7449C131.684 38.7832 132.564 38.618 133.718 38.3976C135.643 38.0671 136.247 37.1856 136.577 35.9186C138.062 29.8587 143.45 22.7521 149.058 22.7521C155.876 22.7521 156.151 27.8754 156.151 27.8754H159.615C157.691 31.291 156.646 34.2659 155.711 37.406C157.031 36.4695 158.515 35.4778 160 34.982C160 36.4144 160 37.8467 160 39.2239C157.361 40.3808 154.172 45.1186 151.753 45.4491C151.698 45.4491 151.643 45.4491 151.588 45.4491C151.368 45.4491 151.203 45.4491 150.983 45.3389C150.983 45.3389 150.928 45.3389 150.928 45.2838C150.158 45.0084 149.553 44.2922 149.058 43.7413C148.564 43.1353 148.509 43.0802 147.739 43.6862C146.694 44.4575 144.715 46 142.46 46C137.567 46 136.797 42.1437 136.577 41.2623C136.247 40.1054 130.144 44.7329 129.43 45.4491L124.646 45.394C124.811 44.788 126.021 41.4275 126.625 39.3892C128.165 34.1006 124.151 34.7066 122.447 39.6647C121.677 41.9784 121.072 43.521 120.522 45.394H115.189C115.519 44.2922 116.124 42.6395 116.838 40.491C117.663 38.012 117.498 37.9018 117.113 38.1222C116.234 38.5629 111.89 45.8898 107.656 45.8898C105.182 45.8898 106.227 42.0335 106.447 40.6012C106.502 40.1054 106.117 40.1054 105.952 40.2707C104.797 41.4275 100.399 45.8898 97.3746 45.8898C94.6804 45.8898 94.8454 43.1904 95.1203 41.703C95.3402 40.3808 95.5052 40.1054 94.8454 40.491C92.9759 41.6479 87.1478 45.6695 87.1478 45.6695H72.0825C72.0825 45.6695 76.2612 34.2108 78.6254 28.9772C80.055 25.8371 85.7182 14.3784 78.6254 14.0479C69.7732 13.6072 58.6117 38.2323 57.732 45.6695H49.3746V45.7796ZM145.649 39.9952C148.124 39.9952 149.883 37.406 150.928 34.8168C152.467 31.1257 151.918 27.3796 149.223 27.4347C144.11 27.4898 139.546 40.0503 145.649 39.9952Z" fill="white"/>
<path d="M41.8419 12.3952H33.3196V3.85629C33.3196 1.76287 31.6151 0 29.4708 0H16.2199C14.1306 0 12.3711 1.70778 12.3711 3.85629V12.3952H3.8488C1.75945 12.3952 0 14.103 0 16.2515V29.5281C0 31.6216 1.70447 33.3844 3.8488 33.3844H12.3711V41.9234C12.3711 44.0168 14.0756 45.7796 16.2199 45.7796H29.4708C31.5601 45.7796 33.3196 44.0719 33.3196 41.9234V33.3844H41.8419C43.9313 33.3844 45.6907 31.6766 45.6907 29.5281V16.2515C45.6907 14.103 43.9313 12.3952 41.8419 12.3952ZM29.1409 22.1461C29.5258 24.4048 28.9759 31.9521 27.7113 33.5497C27.4364 33.8802 27.1615 33.9353 26.9966 33.9353C25.4021 33.9353 25.2921 32.0072 25.1271 29.9138C24.9072 27.1593 24.6323 25.176 22.8179 25.176C21.0034 25.176 20.7285 27.1593 20.5086 29.9138C20.3436 31.9521 20.2337 33.9353 18.6392 33.9353C18.4742 33.9353 18.1993 33.8802 17.9244 33.5497C16.6598 32.0072 16.11 24.4048 16.4948 22.1461C15.5601 20.218 14.5155 17.2982 14.5155 15.976C14.5155 13.9928 16 11.8443 18.1993 11.8443C19.189 11.8443 19.9038 11.9545 20.6186 12.0647C21.2784 12.1749 21.9381 12.285 22.8179 12.285C23.6976 12.285 24.3574 12.1749 25.0172 12.0647C25.677 11.9545 26.3918 11.8443 27.4364 11.8443C29.5808 11.8443 31.1203 14.0479 31.1203 15.976C31.1203 17.2982 30.0756 20.2731 29.1409 22.1461Z" fill="white"/>
</svg>
