<svg width="123" height="95" viewBox="0 0 123 95" fill="none" xmlns="http://www.w3.org/2000/svg">
<path d="M29.6932 79.0133C29.6932 82.4194 29.1772 84.9998 27.8354 86.3416C26.4936 87.6834 25.0486 91.2959 16.0688 91.2959C7.08906 91.2959 4.09581 88.6123 2.6508 86.548C1.20578 84.4837 0.586487 77.2586 0.896134 75.4007C1.309 72.4075 3.27009 69.4142 9.15337 69.6207C11.3209 69.7239 12.7659 70.1367 13.7981 70.6528C14.2109 70.8592 14.5206 71.0657 14.8302 71.3753C15.4495 70.9625 16.172 70.5496 17.101 70.3432C29.4868 67.3499 29.6932 74.1621 29.6932 79.0133ZM48.1688 70.2399C47.3431 70.4464 46.5174 70.4464 45.8981 70.8592C45.5884 70.6528 45.2788 70.3432 44.8659 70.1367C43.8338 69.6207 42.2855 69.5174 40.2212 69.4142C34.3379 69.311 32.4801 72.3043 31.964 75.1943C31.6543 77.0522 32.3769 84.2772 33.7187 86.3416C35.1637 88.4059 38.1569 91.0895 47.1367 91.0895C56.1164 91.0895 57.5614 87.5801 58.9032 86.1351C60.245 84.6901 60.7611 82.2129 60.7611 78.8068C60.8643 74.1621 60.6579 67.3499 48.1688 70.2399ZM79.0302 70.2399C78.2045 70.4464 77.3788 70.4464 76.7595 70.8592C76.4499 70.6528 76.1402 70.756 75.7273 70.4464C74.6952 69.9303 73.147 69.5174 71.0826 69.4142C65.1994 69.311 63.3415 72.3043 62.8254 75.1943C62.5158 77.0522 63.2383 84.2772 64.5801 86.3416C66.0251 88.4059 69.0183 91.0895 77.9981 91.0895C86.9778 91.0895 88.4228 87.5801 89.7646 86.1351C91.1065 84.7933 91.6225 82.2129 91.6225 78.8068C91.6225 74.1621 91.5193 67.3499 79.0302 70.2399ZM109.892 70.2399C109.066 70.4464 108.24 70.756 107.621 71.2721C107.311 71.0657 107.002 70.756 106.589 70.5496C105.557 70.0335 104.008 69.6207 101.944 69.5174C96.0608 69.4142 94.2029 72.4075 93.6868 75.2975C93.3772 77.1554 94.0997 84.3805 95.4415 86.4448C96.7833 88.5091 99.8798 91.1927 108.86 91.1927C117.839 91.1927 119.284 87.6834 120.626 86.2383C121.968 84.7933 122.484 82.3162 122.484 78.91C122.484 74.1621 122.381 67.3499 109.892 70.2399Z" fill="white"/>
<path d="M108.859 92.0186C99.7765 92.0186 96.5769 89.335 94.9254 87.1675C94.2029 86.961 92.0354 86.445 90.1775 87.0643C90.0743 87.1675 89.8678 87.3739 89.7646 87.5803C88.4228 89.2318 86.0489 92.1218 77.9981 92.1218C68.6055 92.1218 65.509 89.2318 63.9608 87.0643C63.8575 87.1675 63.7543 87.1675 63.5479 87.1675L59.6257 86.961H59.5225C59.3161 87.1675 59.2128 87.3739 59.0064 87.5803C57.6646 89.2318 55.2907 92.1218 47.2398 92.1218C37.8472 92.1218 34.6476 89.2318 33.2025 87.0643C32.9961 86.7546 32.9961 86.6514 32.8929 86.445C32.6865 86.5482 32.5833 86.5482 32.3768 86.445C32.3768 86.445 30.7254 85.9289 29.3836 86.445C29.1771 86.5482 28.9707 86.5482 28.7643 86.445C28.6611 86.6514 28.5579 86.7546 28.3514 86.8578C28.145 87.0642 28.0418 87.2707 27.8353 87.4771C26.4935 89.1286 24.1196 92.0186 16.0688 92.0186C6.67617 92.0186 3.47649 89.1286 2.03148 86.961C0.483245 84.6903 -0.239263 77.2588 0.0703833 75.2977C0.483245 72.8205 2.13469 68.6919 9.05013 68.7951C11.1144 68.7951 12.7659 69.208 14.1077 69.9305C14.4173 70.0337 14.6238 70.2401 14.8302 70.3433C15.4495 69.9305 16.172 69.7241 16.8945 69.5176C22.0553 68.3823 25.5646 68.5887 27.8353 70.4466C30.5189 72.6141 30.5189 76.3298 30.5189 79.0134C30.5189 81.4906 30.2093 83.3485 29.6932 84.7935C30.7254 84.5871 31.6543 84.6903 32.2736 84.8967C31.3447 81.697 31.035 76.8459 31.2415 75.2977C31.6543 72.8205 33.3058 68.6919 40.2212 68.7951C42.4919 68.8983 44.0402 68.8983 45.2788 69.6208C45.5884 69.7241 45.7948 69.9305 46.1045 70.1369C46.5173 69.9305 47.0334 69.8273 47.4463 69.7241C47.6527 69.7241 47.8591 69.6208 48.0656 69.6208C53.2263 68.4855 56.7357 68.6919 58.9032 70.5498C61.5868 72.7173 61.5868 76.4331 61.5868 79.1167C61.5868 81.9035 61.2772 83.9678 60.5546 85.4128L63.2382 85.516C62.2061 82.4196 61.69 76.9491 61.9997 75.2977C62.4125 72.8205 64.064 68.6919 70.9794 68.7951C73.0437 68.7951 74.6952 69.208 76.037 69.9305C76.1402 69.9305 76.2434 70.0337 76.3466 70.0337C76.4498 70.0337 76.553 70.0337 76.6563 70.1369C77.1723 69.9305 77.6884 69.8273 78.1013 69.7241C78.3077 69.7241 78.5141 69.6208 78.7206 69.6208C83.8813 68.4855 87.3907 68.6919 89.6614 70.5498C92.345 72.7173 92.345 76.4331 92.345 79.1167C92.345 81.8003 92.0354 83.8646 91.3129 85.3096C92.2418 85.2064 93.1707 85.3096 93.8932 85.4128C92.8611 82.3163 92.4482 76.9491 92.6547 75.2977C93.0675 72.8205 94.719 68.6919 101.634 68.7951C103.699 68.7951 105.35 69.208 106.692 69.9305C107.002 70.0337 107.208 70.2401 107.414 70.3433C108.034 69.9305 108.756 69.7241 109.479 69.5176C114.64 68.3823 118.149 68.5887 120.316 70.4466C123 72.6141 123 76.3298 123 79.0134C123 82.9356 122.277 85.4128 120.832 86.8578C120.626 87.0642 120.523 87.2707 120.316 87.4771C119.181 89.2318 116.91 92.0186 108.859 92.0186ZM101.428 70.2401C97.2994 70.2401 94.9254 71.9948 94.4093 75.4009C94.0997 77.2588 94.8222 84.1742 96.0608 86.0321C97.4026 87.89 100.086 90.4704 108.859 90.4704C116.188 90.4704 118.149 88.0964 119.387 86.5482C119.594 86.2385 119.8 86.0321 120.007 85.8257C121.142 84.6903 121.658 82.5228 121.658 79.0134C121.658 76.6395 121.658 73.3366 119.594 71.5819C117.839 70.1369 114.536 69.9305 109.995 70.9626C109.685 71.0659 109.479 71.0659 109.169 71.1691C109.376 71.2723 109.685 71.3755 109.892 71.3755C110.305 71.4787 110.614 71.8916 110.511 72.3044C110.408 72.7173 109.995 73.0269 109.582 72.9237C108.24 72.6141 107.311 71.8916 107.105 71.7884C106.795 71.5819 106.486 71.3755 106.176 71.1691C105.041 70.5498 103.595 70.2401 101.841 70.2401C101.738 70.2401 101.634 70.2401 101.428 70.2401ZM70.6698 70.2401C66.5412 70.2401 64.1672 71.9948 63.6511 75.4009C63.3415 77.2588 64.064 84.1742 65.3026 86.0321C66.6444 87.89 69.328 90.4704 78.1013 90.4704C85.4296 90.4704 87.3907 88.0964 88.6293 86.5482C88.8357 86.2385 89.0421 86.0321 89.2486 85.8257C90.3839 84.6903 90.9 82.5228 90.9 79.0134C90.9 76.6395 90.9 73.3366 88.8357 71.5819C87.081 70.1369 83.9846 69.9305 79.5463 70.9626C79.7527 71.1691 79.8559 71.4787 79.8559 71.7884C79.7527 72.2012 79.3399 72.5109 78.927 72.4077C78.6174 72.3044 77.1723 71.9948 76.6563 71.6851C76.553 71.6851 76.553 71.5819 76.4498 71.5819C76.4498 71.5819 76.3466 71.5819 76.2434 71.5819C76.037 71.5819 75.8305 71.4787 75.5209 71.3755C74.3855 70.7562 72.9405 70.4466 71.1858 70.4466C70.8762 70.2401 70.773 70.2401 70.6698 70.2401ZM39.8083 70.2401C35.6797 70.2401 33.3058 71.9948 32.7897 75.4009C32.48 77.2588 33.2025 84.1742 34.4411 86.0321C35.7829 87.89 38.4665 90.4704 47.2398 90.4704C54.5681 90.4704 56.5292 88.0964 57.7678 86.5482C57.9743 86.2385 58.1807 86.0321 58.3871 85.8257C59.5225 84.6903 60.0386 82.5228 60.0386 79.0134C60.0386 76.6395 60.0386 73.3366 57.9743 71.5819C56.2196 70.1369 52.9167 69.9305 48.3752 70.9626C48.1688 71.0659 47.8591 71.0659 47.6527 71.0659C47.4463 71.0659 47.2398 71.1691 47.1366 71.1691C47.4463 71.6851 47.7559 72.3044 48.0656 73.1302C48.1688 73.543 48.0656 73.9559 47.6527 74.1623C47.2399 74.2655 46.827 74.1623 46.6206 73.7495C46.1045 72.4077 45.5884 71.5819 45.4852 71.4787C45.1755 71.2723 44.9691 71.0659 44.5562 70.8594C43.6273 70.3433 42.1823 70.3433 40.2212 70.2401C40.0148 70.2401 39.9115 70.2401 39.8083 70.2401ZM8.63727 70.2401C4.50865 70.2401 2.13469 71.9948 1.61862 75.4009C1.30897 77.362 2.03148 84.2774 3.27006 86.0321C4.61186 87.89 7.29547 90.4704 16.0688 90.4704C23.3971 90.4704 25.3582 88.0964 26.5968 86.5482C26.8032 86.2385 27.0096 86.0321 27.2161 85.8257C28.3514 84.6903 28.8675 82.5228 28.8675 79.0134C28.8675 76.6395 28.8675 73.3366 26.8032 71.5819C25.0485 70.1369 21.7456 69.9305 17.2042 70.9626C16.8945 71.0659 16.6881 71.0659 16.3784 71.1691C16.5849 71.2723 16.8945 71.3755 17.1009 71.3755C17.5138 71.4787 17.8234 71.8916 17.7202 72.3044C17.617 72.7173 17.2042 73.0269 16.7913 72.9237C15.4495 72.6141 14.5205 71.8916 14.3141 71.7884C14.0045 71.5819 13.6948 71.3755 13.3852 71.1691C12.2498 70.5498 10.8048 70.2401 9.05013 70.2401C8.94691 70.2401 8.74048 70.2401 8.63727 70.2401Z" fill="#28425F"/>
<path fill-rule="evenodd" clip-rule="evenodd" d="M71.4955 39.4822L57.9742 52.9002L69.3279 62.7057L82.3331 49.5973L71.4955 39.4822Z" fill="#A4D1FF"/>
<path fill-rule="evenodd" clip-rule="evenodd" d="M108.518 1.5495C108.126 1.5332 107.714 1.67449 107.343 2.04595C106.971 2.4174 106.83 2.82971 106.846 3.221C106.863 3.62086 107.048 4.06259 107.446 4.46051L117.561 14.5756C117.959 14.9735 118.401 15.1586 118.8 15.1753C119.192 15.1916 119.604 15.0503 119.975 14.6788C120.347 14.3074 120.488 13.8951 120.472 13.5038C120.455 13.1039 120.27 12.6622 119.872 12.2643L109.757 2.14916C109.359 1.75125 108.917 1.56616 108.518 1.5495ZM108.582 0.0026101C109.421 0.0375569 110.218 0.420156 110.852 1.0544L120.967 11.1695C121.601 11.8038 121.984 12.6006 122.019 13.4393C122.054 14.2866 121.731 15.1129 121.07 15.7736C120.409 16.4343 119.583 16.7575 118.736 16.7222C117.897 16.6872 117.1 16.3046 116.466 15.6704L113.143 12.3472L99.0853 26.4048C98.783 26.7071 98.2928 26.7071 97.9905 26.4048C97.6882 26.1025 97.6882 25.6123 97.9905 25.31L112.048 11.2524L110.614 9.81793L96.5029 23.8264C96.1995 24.1276 95.7094 24.1258 95.4082 23.8224C95.1069 23.519 95.1087 23.0289 95.4121 22.7277L109.519 8.72316L106.351 5.55527C105.717 4.92103 105.334 4.12417 105.299 3.28545C105.264 2.43816 105.587 1.61188 106.248 0.951181C106.908 0.290483 107.735 -0.0326937 108.582 0.0026101ZM91.5506 28.2001C91.8529 28.5024 91.8529 28.9925 91.5506 29.2948L77.6994 43.146L79.1334 44.58L92.933 30.7805C93.2353 30.4781 93.7254 30.4781 94.0277 30.7805C94.33 31.0828 94.33 31.5729 94.0277 31.8752L80.2282 45.6748L81.4354 46.8821C81.8 47.2466 82.0941 47.6606 82.2689 48.0626C82.356 48.263 82.4251 48.4869 82.4435 48.7176C82.4616 48.9442 82.4347 49.2403 82.2547 49.5103C82.2264 49.5527 82.194 49.5922 82.158 49.6283C81.6561 50.1301 81.0064 49.9874 80.6193 49.8114C80.2121 49.6263 79.7994 49.2934 79.4117 48.9058L73.0124 42.5064C72.6478 42.1418 72.3538 41.7279 72.1789 41.3258C72.0918 41.1255 72.0228 40.9016 72.0043 40.6709C71.9862 40.4443 72.0131 40.1482 72.1932 39.8782C72.2679 39.7661 72.3706 39.6754 72.4911 39.6152C72.994 39.3637 73.5183 39.4783 73.9059 39.6545C74.3037 39.8353 74.6884 40.1351 75.0361 40.4827L76.6046 42.0512L90.4558 28.2001C90.7581 27.8978 91.2482 27.8978 91.5506 28.2001ZM73.1211 41.0183C73.121 41.0181 73.1227 41.018 73.1261 41.0183C73.1229 41.0185 73.1212 41.0184 73.1211 41.0183Z" fill="#28425F"/>
<path fill-rule="evenodd" clip-rule="evenodd" d="M86.9728 19.5575C86.6748 19.9084 86.4147 20.4668 86.2999 21.3163C86.2978 21.3324 86.2951 21.3485 86.2919 21.3645C86.1459 22.0945 86.4318 22.8748 87.0091 23.4521L97.95 34.3929C98.9818 35.4248 100.145 35.8566 100.996 35.7351C101.403 35.6769 101.762 35.4926 102.052 35.1504C102.35 34.7995 102.61 34.2412 102.725 33.3916C102.727 33.3755 102.73 33.3594 102.733 33.3435C102.879 32.6134 102.593 31.8331 102.016 31.2558L91.0751 20.315C90.0433 19.2832 88.8797 18.8513 88.0291 18.9728C87.6219 19.031 87.2633 19.2153 86.9728 19.5575ZM87.8102 17.4402C89.3078 17.2262 90.931 17.9814 92.1699 19.2202L103.111 30.1611C103.973 31.0234 104.512 32.2969 104.256 33.6223C104.111 34.6715 103.766 35.5244 103.232 36.1526C102.688 36.7942 101.982 37.1582 101.215 37.2678C100.025 37.4377 98.7565 36.9962 97.664 36.1865L69.4625 64.388C69.1602 64.6903 68.67 64.6903 68.3677 64.388L65.1467 61.1669L61.4041 64.8083C61.1007 65.1036 60.6163 65.1003 60.3169 64.8009L59.4705 63.9545C59.464 63.9615 59.4574 63.9684 59.4506 63.9751L29.4149 94.0108C29.1126 94.3132 28.6224 94.3132 28.3201 94.0108C28.0178 93.7085 28.0178 93.2184 28.3201 92.9161L58.3558 62.8804C58.3626 62.8736 58.3695 62.8669 58.3765 62.8604L57.3237 61.8076C57.0214 61.5053 57.0214 61.0152 57.3237 60.7129L61.0081 57.0284L57.4269 53.4472C57.2817 53.302 57.2001 53.1051 57.2001 52.8998C57.2001 52.6945 57.2817 52.4976 57.4269 52.3524L85.5925 24.1868C84.9243 23.3492 84.5471 22.237 84.7688 21.0856C84.914 20.0364 85.2592 19.1835 85.7926 18.5553C86.3375 17.9137 87.0433 17.5497 87.8102 17.4402ZM86.2553 25.7135L82.1303 29.8385C82.2915 29.8608 82.4469 29.934 82.5709 30.0579L86.493 33.9801C86.7953 34.2824 86.7953 34.7725 86.493 35.0748C86.1907 35.3771 85.7006 35.3771 85.3983 35.0748L81.4761 31.1526C81.3522 31.0287 81.279 30.8733 81.2567 30.7121L78.2081 33.7607C78.3693 33.783 78.5247 33.8561 78.6487 33.9801L82.5709 37.9022C82.8732 38.2046 82.8732 38.6947 82.5709 38.997C82.2685 39.2993 81.7784 39.2993 81.4761 38.997L77.5539 35.0748C77.43 34.9509 77.3569 34.7954 77.3345 34.6343L75.6108 36.3581C75.7406 36.3914 75.8634 36.4588 75.9651 36.5604L79.8872 40.4826C80.1896 40.7849 80.1896 41.2751 79.8872 41.5774C79.5849 41.8797 79.0948 41.8797 78.7925 41.5774L74.8703 37.6552C74.7687 37.5536 74.7012 37.4307 74.6679 37.3009L71.6023 40.3665C71.7635 40.3888 71.919 40.4619 72.0429 40.5858L75.9651 44.508C76.2674 44.8103 76.2674 45.3005 75.9651 45.6028C75.6627 45.9051 75.1726 45.9051 74.8703 45.6028L70.9481 41.6806C70.8242 41.5567 70.7511 41.4012 70.7287 41.2401L67.6802 44.2887C67.8413 44.311 67.9968 44.3841 68.1207 44.508L72.0429 48.4302C72.3452 48.7325 72.3452 49.2227 72.0429 49.525C71.7406 49.8273 71.2504 49.8273 70.9481 49.525L67.0259 45.6028C66.902 45.4789 66.8289 45.3234 66.8066 45.1623L64.9966 46.9723C65.1577 46.9946 65.3132 47.0677 65.4371 47.1916L69.3593 51.1138C69.6616 51.4161 69.6616 51.9063 69.3593 52.2086C69.057 52.5109 68.5668 52.5109 68.2645 52.2086L64.3423 48.2864C64.2184 48.1625 64.1453 48.007 64.123 47.8459L59.069 52.8998L68.9151 62.7459L96.1014 35.5596L86.2553 25.7135ZM61.6807 58.5454L58.9658 61.2602L60.8717 63.1662L63.5904 60.521L61.6807 58.5454Z" fill="#47A0FF"/>
</svg>
