<svg width="106" height="101" viewBox="0 0 106 101" fill="none" xmlns="http://www.w3.org/2000/svg">
<path d="M50 95.5C49.6 95.5 49.2 95.2 49.2 94.7V9.7C49.3 9.3 49.6 9 50 9C50.4 9 50.8 9.3 50.8 9.8V94.8C50.8 95.2 50.4 95.5 50 95.5Z" fill="#A4D1FF"/>
<path d="M34.6 30.3999C32.7 25.6999 27.4 24.7999 22.9 24.5999C23.9 24.5999 25 24.6999 26 24.6999C20.9 24.1999 15.2 23.8999 10.2 24.6999C4.40001 25.6999 1.30001 29.1999 1.00001 34.9999C0.700006 40.1999 1.40001 45.5999 2.80001 50.5999C3.40001 52.7999 4.20001 55.0999 5.50001 56.9999C6.10001 57.7999 6.80001 58.4999 7.40001 59.2999C8.40001 60.6999 9.00001 62.4999 9.40001 64.0999C11 70.0999 11 76.2999 11.8 82.3999C12.2 85.5999 12.8 88.7999 13.5 91.9999C14 94.2999 15 97.7999 17.5 98.9999C23.9 102.2 25.4 72.3999 26.1 68.3999C26.4 66.6999 26.8 65.0999 27.1 63.4999C27 63.4999 26.9 63.5999 26.9 63.7999C27.4 61.6999 28.4 59.7999 29.8 57.9999C31.6 55.6999 32.5 53.6999 33.4 50.8999C34.4 47.4999 35.1 43.8999 35.3 40.3999C35.7 37.1999 35.9 33.5999 34.6 30.3999C34.2 29.4999 35.6 32.8999 34.6 30.3999Z" fill="white"/>
<path d="M26.9 63.6999C25.2 71.2999 25.3 79.2999 24 86.9999C23.4 90.4999 21.7 98.8999 19.2 99.1999C14.2 99.7999 13.3 90.8999 12.9 88.9999C17 86.7999 19.3 83.1999 19.5 78.6999C19.6 76.3999 19.8 74.1999 20.4 71.9999C20.7 70.9999 21.1 69.9999 21.6 68.9999C22.2 68.0999 21.3 66.6999 20.8 65.7999C19.9 64.1999 18.9 64.4999 17.6 65.4999C16 66.5999 14.6 65.6999 13.2 64.7999C11.2 63.3999 8.79999 61.6999 7.79999 59.3999C10.6 61.1999 14.8 61.3999 18.1 61.3999C21.4 61.4999 25.8 61.1999 28.7 59.3999C27.7 60.4999 27.2 62.1999 26.9 63.6999C26.7 64.3999 27.5 60.7999 26.9 63.6999Z" fill="#A4D1FF"/>
<path d="M18.4 100.1C18.2 100.1 18.1 100.1 18 100.1C16.2 99.8 14.8 98.1 14.1 96.8C12.9 94.2 12.3 91.1 11.9 88.3C11.8 87.8 11.7 87.3 11.7 86.9C11.2 83.8 10.9 80.7 10.5 77.7L10.4 77C10.3 76.1 10.2 75.2 10.1 74.3C9.69999 68.7 9.19999 63.1 5.99999 59C2.69999 54.8 0.799992 49.2 0.299992 41.8C-0.100008 36.5 -0.700009 28.5 5.59999 25.4C10.9 22.8 18 23.4 23.7 23.8L25 23.9C27.8 24.2 30.6 24.7 32.9 26.7C35.2 28.6 35.9 31.7 36.1 33.9L36.2 34.4L36.3 35C36.6 38.6 36.3 42.4 35.4 46.6L35.3 47.2C34.7 50.3 34 53.5 32.4 56.2C31.8 57.1 31.2 58 30.7 58.8C29.5 60.5 28.4 62.1 27.9 64.3C27.2 67.3 26.8 70.4 26.5 73.3C26.4 74.4 26.3 75.6 26.1 76.7C25.6 81.4 25.1 86.2 24 90.8C23.9 91.3 23.7 91.9 23.6 92.4C23.1 94.6 22.6 97 20.9 98.8C20 99.8 19.1 100.1 18.4 100.1ZM16.2 24.9C12.6 24.9 9.09999 25.3 6.19999 26.7C0.799991 29.3 1.39999 36.7 1.69999 41.6C2.29999 48.8 4.09999 54.1 7.09999 58C10.6 62.5 11.2 68.6 11.7 74C11.8 74.9 11.9 75.8 12 76.7L12.1 77.4C12.4 80.4 12.7 83.5 13.3 86.5C13.4 87 13.5 87.5 13.5 88C13.9 90.7 14.4 93.8 15.6 96.1C16.1 97.2 17.2 98.4 18.3 98.6C18.9 98.7 19.4 98.5 19.8 97.9C21.1 96.4 21.6 94.3 22.1 92.2C22.2 91.6 22.3 91.1 22.5 90.6C23.6 86.1 24.1 81.3 24.6 76.7C24.7 75.6 24.8 74.4 25 73.3C25.3 70.3 25.7 67.2 26.4 64.1C27 61.6 28.2 59.9 29.5 58.1C30.1 57.3 30.6 56.5 31.2 55.6C32.7 53.1 33.3 50 33.9 47.1L34 46.5C34.9 42.2 35.1 38.3 34.8 34.7L34.7 34.2C34.6 32.6 34 29.6 32 28C30 26.3 27.4 25.9 24.9 25.6L23.7 25.5C22.8 25.4 22 25.4 21 25.3L24.6 29.9C24.8 30.1 24.8 30.4 24.7 30.6L23 35.3L24 39.2L26.6 41.4H29.7C30 41.4 30.3 41.6 30.4 41.8L31.6 44.3C31.8 44.7 31.6 45.1 31.2 45.3C30.8 45.5 30.4 45.3 30.2 44.9L29.2 42.8H26.3C26.1 42.8 26 42.7 25.8 42.6L23.5 40.6L21.5 43.4L22.5 49.7C22.6 50.1 22.3 50.5 21.9 50.6C21.5 50.7 21.1 50.4 21 50L20 43.4C20 43.2 20 43 20.1 42.8L22.6 39.4L21.7 35.8L17.3 37.2L16.3 40C16.3 40.1 16.2 40.3 16 40.4L13.6 42.2C13.3 42.4 12.8 42.4 12.6 42C12.4 41.7 12.4 41.2 12.8 41L15 39.4L15.9 36.6C16 36.4 16.2 36.2 16.4 36.1L21.5 34.4C21.6 34.4 21.7 34.4 21.8 34.4L23.1 30.4L19.4 25.6C19.3 25.4 19.2 25.2 19.2 25.1C18.2 25 17.2 24.9 16.2 24.9Z" fill="#28425F"/>
<path d="M92.1 46.8998C92.3 45.5998 92.4 44.7998 92.4 44.7998L89.6 42.2998H74.7L71.9 44.7998C71.9 44.7998 73.9 67.6998 73.9 68.4998C73.9 69.2998 73.9 69.9998 73.9 70.5998C73.6 78.1998 78.7 83.4998 78.7 83.4998H85.6C85.6 83.4998 90.7 78.1998 90.4 70.5998C90.4 70.1998 90.2 67.1998 90.5 63.2998C91 56.5998 92.1 47.3998 92.1 46.8998Z" fill="#F5FAFF"/>
<path d="M85.6 84.2999H78.7C78.5 84.2999 78.3 84.1999 78.2 84.0999L76.9 84.1999C76.5 84.1999 76.1 83.8999 76.1 83.4999C76.1 83.0999 76.4 82.6999 76.8 82.6999H77.1C76.9 82.3999 76.7 82.0999 76.4 81.6999L75.3 81.7999C74.9 81.7999 74.5 81.4999 74.5 81.0999C74.5 80.6999 74.8 80.2999 75.2 80.2999H75.5C75.3 79.9999 75.2 79.6999 75 79.2999L74.1 79.3999C73.7 79.3999 73.3 79.0999 73.3 78.6999C73.3 78.2999 73.6 77.8999 74 77.8999H74.4C74.3 77.5999 74.2 77.2999 74.1 76.8999L73.4 76.9999C73 76.9999 72.6 76.6999 72.6 76.2999C72.6 75.8999 72.9 75.4999 73.3 75.4999H73.7C73.6 75.1999 73.6 74.7999 73.5 74.4999H73C72.6 74.4999 72.2 74.1999 72.2 73.7999C72.2 73.3999 72.5 72.9999 72.9 72.9999H73.3C73.3 72.6999 73.2 72.2999 73.2 71.9999H73C72.6 71.9999 72.2 71.6999 72.2 71.2999C72.2 70.8999 72.5 70.4999 72.9 70.4999H73.3C73.3 70.1999 73.3 69.7999 73.3 69.4999H73C72.6 69.4999 72.2 69.1999 72.2 68.7999C72.2 68.3999 72.5 67.9999 72.9 67.9999H73.3C73.3 67.6999 73.3 67.2999 73.3 66.9999H73C72.6 66.9999 72.2 66.6999 72.2 66.2999C72.2 65.8999 72.5 65.4999 72.9 65.4999H73.3C73.3 65.1999 73.3 64.7999 73.2 64.4999H72.9C72.5 64.4999 72.1 64.1999 72.1 63.7999C72.1 63.3999 72.4 62.9999 72.8 62.9999H73.2C73.2 62.6999 73.2 62.2999 73.1 61.9999H72.8C72.4 61.9999 72 61.6999 72 61.2999C72 60.8999 72.3 60.4999 72.7 60.4999H73C73 60.1999 72.9 59.7999 72.9 59.4999H72.6C72.2 59.4999 71.8 59.1999 71.8 58.7999C71.8 58.3999 72.1 57.9999 72.5 57.9999H72.8C72.8 57.6999 72.7 57.2999 72.7 56.9999H72.4C72 56.9999 71.6 56.6999 71.6 56.2999C71.6 55.8999 71.9 55.4999 72.3 55.4999H72.6C72.6 55.1999 72.5 54.7999 72.5 54.4999H72.2C71.8 54.4999 71.4 54.1999 71.4 53.7999C71.4 53.3999 71.7 52.9999 72.1 52.9999H72.4C72.4 52.6999 72.3 52.2999 72.3 51.9999H72C71.6 51.9999 71.2 51.6999 71.2 51.2999C71.2 50.8999 71.5 50.4999 71.9 50.4999H72.2C72.2 50.1999 72.1 49.7999 72.1 49.4999H71.8C71.4 49.4999 71 49.1999 71 48.7999C71 48.3999 71.3 47.9999 71.7 47.9999H72C72 47.5999 71.9 47.2999 71.9 46.9999H71.8C71.4 46.9999 71 46.6999 71 46.2999C71 45.8999 71.3 45.4999 71.7 45.4999H71.8C71.8 45.2999 71.8 45.0999 71.7 45.0999V44.9999C71.7 44.9999 71.7 44.9999 71.7 44.8999C71.7 44.6999 71.8 44.5999 71.9 44.3999C71.9 44.3999 71.9 44.3999 72 44.2999L74.8 41.7999C74.9 41.6999 75.1 41.5999 75.3 41.5999H90.2C90.4 41.5999 90.6 41.6999 90.7 41.7999L93.5 44.2999C93.6 44.3999 93.7 44.5999 93.7 44.7999V44.8999C93.7 44.9999 93.6 45.3999 93.6 46.0999C94 46.0999 94.4 46.3999 94.4 46.7999C94.4 47.1999 94.1 47.5999 93.7 47.5999H93.4C93.4 47.8999 93.3 48.2999 93.3 48.5999H93.5C93.9 48.5999 94.3 48.8999 94.3 49.2999C94.3 49.6999 94 50.0999 93.6 50.0999H93.1C93.1 50.3999 93 50.7999 93 51.0999H93.2C93.6 51.0999 94 51.3999 94 51.7999C94 52.1999 93.7 52.5999 93.3 52.5999H92.8C92.8 52.8999 92.7 53.2999 92.7 53.5999H92.9C93.3 53.5999 93.7 53.8999 93.7 54.2999C93.7 54.6999 93.4 55.0999 93 55.0999H92.5C92.5 55.3999 92.4 55.7999 92.4 56.0999H92.6C93 56.0999 93.4 56.3999 93.4 56.7999C93.4 57.1999 93.1 57.5999 92.7 57.5999H92.2C92.2 57.8999 92.1 58.2999 92.1 58.5999H92.3C92.7 58.5999 93.1 58.8999 93.1 59.2999C93.1 59.6999 92.8 60.0999 92.4 60.0999H91.9C91.9 60.3999 91.8 60.7999 91.8 61.0999H92C92.4 61.0999 92.8 61.3999 92.8 61.7999C92.8 62.1999 92.5 62.5999 92.1 62.5999H91.6C91.6 62.8999 91.6 63.2999 91.5 63.5999H91.7C92.1 63.5999 92.5 63.8999 92.5 64.2999C92.5 64.6999 92.2 65.0999 91.8 65.0999H91.4C91.4 65.3999 91.4 65.7999 91.4 66.0999H91.7C92.1 66.0999 92.5 66.3999 92.5 66.7999C92.5 67.1999 92.2 67.5999 91.8 67.5999H91.4C91.4 67.8999 91.4 68.2999 91.4 68.5999H91.7C92.1 68.5999 92.5 68.8999 92.5 69.2999C92.5 69.6999 92.2 70.0999 91.8 70.0999H91.4C91.4 70.1999 91.4 70.1999 91.4 70.2999C91.4 70.5999 91.4 70.8999 91.4 71.0999H91.7C92.1 71.0999 92.5 71.3999 92.5 71.7999C92.5 72.1999 92.2 72.5999 91.8 72.5999H91.3C91.3 72.8999 91.2 73.2999 91.2 73.5999H91.5C91.9 73.5999 92.3 73.8999 92.3 74.2999C92.3 74.6999 92 75.0999 91.6 75.0999L90.9 75.1999C90.8 75.5999 90.7 75.8999 90.6 76.1999H90.9C91.3 76.1999 91.7 76.4999 91.7 76.8999C91.7 77.2999 91.4 77.6999 91 77.6999L90.1 77.7999C90 78.1999 89.8 78.4999 89.6 78.7999H89.8C90.2 78.7999 90.6 79.0999 90.6 79.4999C90.6 79.8999 90.3 80.2999 89.9 80.2999L88.7 80.3999C88.5 80.7999 88.3 81.0999 88 81.4999H88.2C88.6 81.4999 89 81.7999 89 82.1999C89 82.5999 88.7 82.9999 88.3 82.9999L86.8 83.0999C86.5 83.4999 86.3 83.6999 86.2 83.7999C86 84.1999 85.8 84.2999 85.6 84.2999ZM83.1 82.7999H83.9V71.3999C83.9 70.9999 84.2 70.5999 84.7 70.5999C85.2 70.5999 85.5 70.8999 85.5 71.3999V77.2999C85.6 77.0999 85.8 76.8999 86.1 76.8999L88.8 76.6999C88.9 76.3999 89 75.9999 89.1 75.6999L86.6 75.8999L86.5 75.1999L86.4 74.4999L89.4 74.2999C89.5 73.9999 89.5 73.5999 89.6 73.2999L86.6 73.4999C86.2 73.4999 85.8 73.1999 85.8 72.7999C85.8 72.3999 86.1 71.9999 86.5 71.9999L89.7 71.6999C89.7 71.3999 89.7 71.0999 89.7 70.7999V70.6999L87 70.8999C86.6 70.8999 86.2 70.5999 86.2 70.1999C86.2 69.7999 86.5 69.3999 86.9 69.3999L89.7 69.1999C89.7 68.8999 89.7 68.4999 89.7 68.1999L74.8 69.3999C74.8 69.7999 74.8 70.0999 74.8 70.3999L81.5 69.8999C81.9 69.8999 82.3 70.1999 82.3 70.5999C82.3 70.9999 82 71.3999 81.6 71.3999L74.7 71.8999C74.7 72.1999 74.7 72.5999 74.8 72.8999L80.5 72.3999C80.9 72.3999 81.3 72.6999 81.3 73.0999C81.3 73.4999 81 73.8999 80.6 73.8999L75 74.1999C75.1 74.4999 75.1 74.8999 75.2 75.1999L79.9 74.7999C80.3 74.7999 80.7 75.0999 80.7 75.4999C80.7 75.8999 80.4 76.2999 80 76.2999L75.6 76.5999C75.7 76.8999 75.8 77.2999 76 77.5999L80.4 77.1999C80.8 77.1999 81.2 77.4999 81.2 77.8999C81.2 78.2999 80.9 78.6999 80.5 78.6999L76.6 78.9999C76.8 79.2999 77 79.6999 77.1 79.9999L81.6 79.5999C82 79.5999 82.4 79.8999 82.4 80.2999C82.4 80.6999 82.1 81.0999 81.7 81.0999L78 81.3999C78.3 81.7999 78.5 82.0999 78.7 82.3999L82.2 82.0999C82.7 82.1999 83 82.3999 83.1 82.7999ZM85.4 80.8999V81.8999H85.9C86.1 81.5999 86.4 81.1999 86.6 80.7999L85.4 80.8999C85.5 80.8999 85.4 80.8999 85.4 80.8999ZM85.4 77.9999V79.4999L87.6 79.2999C87.8 78.9999 87.9 78.5999 88.1 78.1999L86.1 78.3999C85.8 78.3999 85.5 78.1999 85.4 77.9999ZM74.7 66.6999C74.7 66.9999 74.7 67.3999 74.7 67.6999L89.7 66.4999C89.7 66.1999 89.7 65.7999 89.7 65.4999L74.7 66.6999ZM74.5 64.1999C74.5 64.4999 74.5 64.8999 74.6 65.1999L89.8 63.9999C89.8 63.6999 89.8 63.2999 89.9 62.9999L74.5 64.1999ZM74.4 61.6999C74.4 61.9999 74.4 62.3999 74.5 62.6999L90 61.4999C90 61.1999 90.1 60.7999 90.1 60.4999L74.4 61.6999ZM74.2 59.1999C74.2 59.4999 74.3 59.8999 74.3 60.1999L90.2 58.8999C90.2 58.5999 90.3 58.1999 90.3 57.8999L74.2 59.1999ZM74 56.6999C74 56.9999 74.1 57.3999 74.1 57.6999L90.4 56.3999C90.4 56.0999 90.5 55.6999 90.5 55.3999L74 56.6999ZM73.7 54.1999C73.7 54.4999 73.8 54.8999 73.8 55.1999L90.6 53.8999C90.6 53.5999 90.7 53.1999 90.7 52.8999L73.7 54.1999ZM73.5 51.6999C73.5 51.9999 73.6 52.3999 73.6 52.6999L90.9 51.2999C90.9 50.8999 91 50.5999 91 50.2999L73.5 51.6999ZM73.2 49.1999C73.2 49.4999 73.3 49.8999 73.3 50.1999L91.1 48.7999C91.1 48.3999 91.2 48.0999 91.2 47.7999L73.2 49.1999ZM72.9 46.6999C72.9 46.9999 73 47.2999 73 47.6999L91.4 46.1999C91.4 45.9999 91.5 45.6999 91.5 45.4999H83.5C83.4 45.6999 83.2 45.7999 82.9 45.7999L72.9 46.6999ZM73.9 43.9999H90.4L89.3 42.9999H75L73.9 43.9999Z" fill="#47A0FF"/>
<path d="M99.2 17.9998C98.9 12.9998 97.9 8.89983 92.6 7.09983C89.9 6.19983 87.1 6.29983 84.4 6.19983C81.2 6.19983 78 5.99983 74.8 6.29983C69.9 6.79983 65.6 9.19983 65 14.3998C64.4 19.3998 64.8 24.4998 65.9 29.3998C66.8 33.3998 67.9 38.5998 72.1 40.5998C74.8 42.0998 78.8 42.7998 81.9 42.7998C85.4 42.8998 90.8 41.5998 93.4 39.4998C95.1 37.6998 96 35.9998 96.4 35.0998C97.3 32.7998 97.9 30.2998 98.4 27.8998C99 24.6998 99.4 21.3998 99.2 17.9998C99.2 17.5998 99.2 18.3998 99.2 17.9998Z" fill="white"/>
<path d="M82.3 43.6998C82.1 43.6998 82 43.6998 81.8 43.6998C78.2 43.6998 74.2 42.7998 71.6 41.3998C67.3 39.3998 66.1 34.1998 65.1 30.0998L65 29.6998C63.8 24.3998 63.4 19.2998 64.1 14.3998C64.7 9.49979 68.6 6.29979 74.6 5.59979C77.2 5.29979 79.8 5.39979 82.4 5.39979C83 5.39979 83.6 5.39979 84.3 5.39979H84.9C87.5 5.39979 90.1 5.39979 92.7 6.29979C98.5 8.19979 99.6 12.9998 99.8 17.7998C99.9 20.8998 99.6 24.2998 98.9 27.9998C98.3 30.9998 97.7 33.2998 96.9 35.2998C96.7 35.7998 95.9 37.6998 93.8 39.8998C91.5 42.7998 86.3 43.6998 82.3 43.6998ZM79.5 6.89979C77.9 6.89979 76.4 6.89979 74.8 7.09979C71.7 7.39979 66.4 8.79979 65.6 14.5998C65 19.1998 65.3 24.1998 66.5 29.2998L66.6 29.6998C67.5 33.4998 68.6 38.2998 72.3 39.9998C74.7 41.2998 78.5 42.0998 81.8 42.0998C85.7 42.1998 90.7 41.2998 92.8 38.9998C94.3 37.3998 95.2 35.7998 95.6 34.8998C96.3 32.9998 97 30.6998 97.5 27.8998C98.2 24.2998 98.5 21.0998 98.4 18.0998C98.4 18.0998 98.4 18.0998 98.4 17.9998C98.1 12.8998 97 9.39979 92.3 7.79979C90 6.99979 87.6 6.99979 85 6.99979H84.4C83.8 6.99979 83.2 6.99979 82.5 6.99979C81.5 6.89979 80.5 6.89979 79.5 6.89979Z" fill="#28425F"/>
<path d="M89.7 33.2998C89.3 33.2998 88.9 32.9998 88.9 32.4998C88.9 28.3998 87.9 26.9998 84.9 26.9998C84.5 26.9998 84.1 26.6998 84.1 26.1998C84.1 25.6998 84.4 25.3998 84.9 25.3998C88.2 25.3998 88.9 24.5998 88.9 20.8998C88.9 20.4998 89.2 20.0998 89.7 20.0998C90.2 20.0998 90.5 20.3998 90.5 20.8998C90.5 24.6998 91.7 25.3998 94.5 25.3998C94.9 25.3998 95.3 25.6998 95.3 26.1998C95.3 26.6998 95 26.9998 94.5 26.9998C92.4 26.9998 90.5 27.6998 90.5 32.4998C90.5 32.9998 90.1 33.2998 89.7 33.2998ZM88.3 26.4998C88.9 26.8998 89.4 27.4998 89.7 28.1998C90.1 27.4998 90.5 26.8998 91.1 26.4998C90.5 26.1998 90 25.6998 89.7 25.0998C89.4 25.7998 88.9 26.1998 88.3 26.4998ZM71.2 24.2998C70.8 24.2998 70.4 23.9998 70.4 23.4998C70.4 16.9998 70.1 14.8998 64.4 14.6998C64.1 14.6998 63.8 14.6998 63.4 14.6998C63 14.6998 62.6 14.3998 62.6 13.8998C62.6 13.3998 62.9 13.0998 63.4 13.0998C63.7 13.0998 64.1 13.0998 64.4 13.0998C69.3 12.8998 70.2 10.9998 70.3 6.89981C70.3 6.19981 70.3 5.4998 70.3 4.6998C70.3 4.2998 70.6 3.8998 71.1 3.8998C71.6 3.8998 71.9 4.1998 71.9 4.6998C71.9 5.3998 71.9 6.1998 71.9 6.7998C72 10.6998 72.5 12.9998 78.9 12.9998C79.3 12.9998 79.7 13.2998 79.7 13.7998C79.7 14.2998 79.4 14.5998 78.9 14.5998C72.2 14.5998 71.9 16.5998 71.9 23.4998C71.9 23.8998 71.6 24.2998 71.2 24.2998ZM68.4 13.8998C69.8 14.4998 70.7 15.3998 71.2 16.5998C71.7 15.2998 72.6 14.3998 74 13.8998C72.6 13.2998 71.7 12.2998 71.2 11.0998C70.6 12.2998 69.8 13.2998 68.4 13.8998ZM91.3 3.8998C90.4 3.8998 89.8 3.1998 89.8 2.2998C89.8 1.4998 90.5 0.799805 91.3 0.799805C92.1 0.799805 92.8 1.4998 92.8 2.2998C92.8 3.1998 92.1 3.8998 91.3 3.8998ZM91.3 2.2998C91.2 2.2998 91.2 2.2998 91.3 2.2998V2.2998Z" fill="#47A0FF"/>
<path d="M61.9 39.1999H61C60.6 39.1999 60.2 38.8999 60.2 38.3999C60.2 37.8999 60.5 37.5999 61 37.5999H61.9C62.3 37.5999 62.7 37.8999 62.7 38.3999C62.7 38.8999 62.3 39.1999 61.9 39.1999ZM102.8 33.2999C101.4 33.2999 100.3 32.1999 100.3 30.7999C100.3 29.3999 101.4 28.2999 102.8 28.2999C104.2 28.2999 105.3 29.3999 105.3 30.7999C105.3 32.1999 104.2 33.2999 102.8 33.2999ZM102.8 29.7999C102.2 29.7999 101.8 30.1999 101.8 30.7999C101.8 31.2999 102.2 31.7999 102.8 31.7999C103.4 31.7999 103.8 31.3999 103.8 30.7999C103.8 30.1999 103.3 29.7999 102.8 29.7999ZM60.3 6.4999C59.9 6.4999 59.5 6.1999 59.5 5.6999V4.6999H58.6C58.2 4.6999 57.8 4.3999 57.8 3.8999C57.8 3.3999 58.1 3.0999 58.6 3.0999H59.5V2.1999C59.5 1.7999 59.8 1.3999 60.3 1.3999C60.8 1.3999 61 1.7999 61 2.1999V3.2999H62C62.4 3.2999 62.8 3.5999 62.8 4.0999C62.8 4.5999 62.4 4.7999 62 4.7999H61V5.7999C61 6.1999 60.7 6.4999 60.3 6.4999ZM65 4.7999H64.1C63.7 4.7999 63.4 4.4999 63.4 3.9999C63.4 3.4999 63.7 3.1999 64.1 3.1999H65C65.4 3.1999 65.8 3.4999 65.8 3.9999C65.8 4.4999 65.4 4.7999 65 4.7999Z" fill="#28425F"/>
</svg>
