<svg width="110" height="116" viewBox="0 0 110 116" fill="none" xmlns="http://www.w3.org/2000/svg">
<path d="M88.3784 101.112C90.4784 105.112 92.5784 109.312 93.8784 113.212C93.8784 113.212 83.2784 115.912 78.4784 115.912C67.9784 115.912 58.4784 113.912 58.4784 113.912L58.3784 114.012L57.4784 95.5118C57.4784 95.5118 57.3784 95.2118 57.2784 94.6118V94.5118L58.5784 92.6118L63.3784 92.2118L69.0784 92.3118L75.6784 91.3118L82.0784 88.6118L83.1784 89.9118C84.0784 92.9118 86.1784 96.9118 88.3784 101.112ZM88.6784 83.2118C89.6784 82.6118 90.6784 81.9118 91.5784 81.1118C91.3784 80.9118 91.1784 80.7118 91.0784 80.6118L88.4784 83.2118C88.4784 83.3118 88.5784 83.3118 88.6784 83.2118ZM95.0784 76.5118L92.5784 79.0118C92.6784 79.1118 92.8784 79.3118 93.0784 79.5118C93.8784 78.7118 94.4784 77.7118 95.0784 76.8118V76.7118C95.1784 76.5118 95.1784 76.5118 95.0784 76.5118ZM92.4784 79.0118L90.9784 80.6118L88.3784 83.2118C86.1784 81.3118 83.8784 79.4118 81.6784 77.5118C76.7784 73.3118 71.7784 69.1118 66.8784 64.8118C60.7784 58.9118 57.0784 55.4118 53.5784 52.2118C49.7784 48.7118 46.2784 45.4118 40.0784 39.4118L40.1784 39.3118L36.6784 35.5118C32.4784 30.2118 28.8784 25.4118 24.4784 19.9118C23.3784 18.5118 23.3784 16.5118 24.5784 15.1118C25.3784 14.2118 26.1784 13.3118 27.1784 12.5118C28.5784 11.3118 30.5784 11.3118 31.9784 12.4118C37.4784 16.7118 42.1784 20.3118 47.3784 24.5118L50.8784 27.8118L50.9784 27.6118C58.0784 35.0118 61.4784 38.6118 65.7784 43.2118C68.5784 46.2118 71.8784 49.7118 76.8784 54.9118C79.0784 57.5118 81.3784 60.1118 83.5784 62.8118C87.4784 67.3118 91.3784 71.9118 95.2784 76.5118L92.4784 79.0118Z" fill="white"/>
<path d="M85.0784 41.4117C80.0784 37.0117 75.9784 31.6117 72.8784 25.7117C71.7784 23.5117 70.1784 21.7117 67.4784 21.7117C65.4784 21.7117 63.3784 21.0117 61.4784 20.5117C58.5784 19.8117 53.3784 19.1117 51.2784 21.1117C50.2784 22.1117 47.9784 21.1117 47.3784 22.4117C46.6784 23.8117 47.4784 25.1117 47.9784 26.3117C48.1784 26.8117 49.3784 27.1117 49.8784 27.3117C51.5784 28.1117 53.5784 28.1117 55.4784 28.0117C56.6784 27.9117 57.1784 29.0117 58.2784 29.4117C59.4784 29.9117 60.6784 30.3117 61.9784 30.0117C61.6784 32.8117 63.3784 34.6117 65.1784 36.4117C65.5784 36.8117 67.0784 37.8117 66.8784 38.4117C66.5784 39.7117 66.2784 40.9117 65.9784 42.2117C65.6784 43.6117 66.0784 43.8117 67.0784 44.8117C68.5784 46.4117 70.0784 47.9117 71.4784 49.5117C75.5784 53.8117 79.5784 58.3117 83.4784 62.8117C84.6784 58.5117 85.9784 54.1117 87.7784 50.0117C89.0784 46.8117 87.4784 43.5117 85.0784 41.4117C84.5784 41.0117 89.7784 45.5117 85.0784 41.4117ZM64.9784 63.0117C61.2784 59.5117 57.5784 55.9117 53.7784 52.4117C52.9784 51.7117 50.9784 52.5117 49.7784 51.9117C49.0784 51.6117 48.2784 51.2117 47.5784 50.9117C46.5784 50.4117 46.1784 49.0117 45.4784 48.1117C44.6784 47.0117 43.7784 46.0117 42.8784 45.1117C42.3784 44.5117 41.0784 43.8117 40.7784 43.1117C40.4784 42.8117 40.6784 41.9117 40.5784 41.5117C40.3784 40.8117 40.1784 40.0117 39.8784 39.3117C39.2784 37.7117 38.0784 36.0117 36.3784 35.4117C34.9784 34.8117 32.2784 34.2117 31.5784 36.1117C30.4784 39.2117 33.4784 42.9117 33.9784 45.9117C34.3784 48.3117 34.5784 50.5117 35.4784 52.9117C35.7784 53.8117 36.1784 54.8117 36.7784 55.5117C36.7784 56.8117 37.3784 58.2117 37.9784 59.4117C38.9784 61.3117 40.2784 63.1117 41.5784 64.8117C42.8784 66.6117 43.4784 68.8117 44.7784 70.6117C46.6784 73.1117 49.2784 74.8117 51.3784 77.1117C52.7784 78.6117 53.1784 80.6117 53.6784 82.6117C54.4784 85.6117 55.0784 88.6117 55.4784 91.6117C55.7784 93.6117 55.2784 95.6117 55.5784 97.5117C55.5784 97.5117 55.8784 95.2117 56.2784 94.7117C56.8784 94.0117 57.9784 93.7117 58.8784 93.5117C62.3784 92.9117 65.9784 93.6117 69.5784 93.1117C72.7784 92.6117 75.9784 91.9117 79.0784 91.0117C80.3784 90.6117 83.4784 88.5117 84.1784 90.6117C84.1784 90.0117 84.1784 89.7117 83.9784 89.2117C83.4784 88.3117 83.0784 87.2117 82.7784 86.2117C81.9784 83.3117 81.5784 80.3117 81.4784 77.4117C76.6784 73.3117 70.2784 68.1117 64.9784 63.0117ZM84.7784 90.8117C84.7784 90.8117 84.6784 92.1117 84.6784 92.5117C84.7784 92.0117 84.9784 91.4117 84.7784 90.8117C84.7784 90.8117 84.8784 91.0117 84.7784 90.8117Z" fill="#A4D1FF"/>
<path d="M84.7785 91.1118C84.5785 91.1118 84.3785 91.0118 84.1785 90.8118C82.2785 88.6118 80.9785 83.7118 80.7785 78.0118C80.7785 77.6118 81.0785 77.2118 81.4785 77.2118C81.8785 77.2118 82.2785 77.5118 82.2785 77.9118C82.4785 83.2118 83.6785 87.9118 85.2785 89.8118C85.5785 90.1118 85.4785 90.6118 85.1785 90.9118C85.1785 91.0118 84.9785 91.1118 84.7785 91.1118ZM83.3785 62.9118C83.2785 62.9118 83.2785 62.9118 83.1785 62.9118C82.7785 62.8118 82.5785 62.4118 82.6785 62.0118C84.7785 54.0118 87.0785 49.7118 87.0785 49.5118C87.2785 49.1118 87.6785 49.0118 88.0785 49.2118C88.4785 49.4118 88.5785 49.8118 88.3785 50.2118C88.3785 50.2118 86.0785 54.6118 84.0785 62.4118C84.0785 62.7118 83.7785 62.9118 83.3785 62.9118ZM50.8785 53.1118C50.3785 53.1118 50.0785 53.0118 49.8785 52.8118C49.5785 52.5118 49.4785 52.1118 49.7785 51.7118C49.9785 51.4118 50.3785 51.3118 50.6785 51.5118C50.7785 51.5118 51.1785 51.5118 52.0785 51.3118L52.1785 51.2118C52.4785 50.9118 52.9785 50.9118 53.2785 51.2118C53.5785 51.5118 53.5785 52.0118 53.2785 52.3118L52.9785 52.5118C52.8785 52.6118 52.7785 52.6118 52.6785 52.7118C51.8785 53.0118 51.2785 53.1118 50.8785 53.1118ZM65.8785 44.1118C65.4785 44.1118 65.0785 43.8118 65.0785 43.4118L65.1785 42.1118C65.3785 40.6118 65.6785 38.7118 66.2785 37.7118C66.4785 37.4118 66.9785 37.3118 67.2785 37.5118C67.5785 37.7118 67.6785 38.2118 67.4785 38.5118C67.0785 39.1118 66.7785 40.5118 66.5785 42.2118V43.4118C66.5785 43.8118 66.2785 44.1118 65.8785 44.1118Z" fill="#47A0FF"/>
<path d="M58.3785 114.612C57.9785 114.612 57.6785 114.312 57.6785 113.912L56.7785 95.4118C56.7785 95.0117 57.0785 94.6117 57.4785 94.6117C57.8785 94.6117 58.2785 94.9118 58.2785 95.3118L59.1785 113.812C59.1785 114.312 58.7785 114.612 58.3785 114.612ZM93.8785 113.912C93.5785 113.912 93.2785 113.712 93.1785 113.412C91.8785 109.412 89.5785 105.112 87.4785 100.912C85.3785 96.8118 83.3785 93.0117 82.4785 89.9118C82.3785 89.5117 82.5785 89.1117 82.9785 89.0117C83.3785 88.9118 83.7785 89.1117 83.8785 89.5117C84.6785 92.4118 86.6785 96.2117 88.6785 100.212C90.8785 104.412 93.1785 108.812 94.4785 112.912C94.5785 113.312 94.3785 113.712 93.9785 113.812C94.0785 113.912 93.9785 113.912 93.8785 113.912ZM108.178 111.612C108.078 111.612 107.978 111.612 107.878 111.512C107.478 111.312 107.378 110.912 107.478 110.512C107.578 110.212 110.478 103.512 103.878 92.0117C101.578 87.9118 95.5785 82.6117 93.1785 80.5117C92.9785 80.7117 92.8785 80.8118 92.6785 81.0117C95.5785 83.5117 101.078 88.5117 103.278 92.4118C106.678 98.2118 107.478 102.712 107.578 105.512C107.678 108.312 107.078 110.212 106.778 110.512C106.478 110.812 105.978 110.812 105.678 110.512C105.478 110.312 105.378 109.912 105.578 109.612C105.678 109.512 106.178 108.112 106.078 105.512C105.978 102.912 105.278 98.7117 102.078 93.1117C99.8785 89.3117 94.0785 84.1117 91.5785 82.0117C90.7785 82.7117 89.9785 83.3118 89.0785 83.8118C88.7785 84.0117 88.4785 84.0117 88.1785 83.9118C88.0785 83.9118 87.9785 83.8117 87.8785 83.7117C85.6785 81.8117 83.3785 79.9118 81.1785 78.0117C76.2785 73.8118 71.2785 69.6118 66.3785 65.3118C60.0785 59.3118 56.3785 55.8117 53.0785 52.7118C53.0785 52.7118 52.9785 52.7117 52.9785 52.6117L52.7785 52.4118C49.0785 48.9118 45.5785 45.6117 39.5785 39.8117C39.3785 39.7118 39.2785 39.5117 39.2785 39.2118C39.2785 38.8117 39.5785 38.4118 39.9785 38.4118C40.1785 38.4118 40.3785 38.5117 40.4785 38.6117C46.4785 44.4117 49.9785 47.7118 53.7785 51.2118L53.8785 51.3117C53.8785 51.3117 53.9785 51.3118 53.9785 51.4118C57.1785 54.4118 60.6785 57.7118 66.5785 63.4118C68.7785 59.4118 71.4785 56.7117 75.3785 54.6117C71.2785 50.3117 68.1785 47.0117 64.9785 43.6117L63.6785 42.2118C60.0785 38.3117 56.6785 34.7117 50.3785 28.2117C50.0785 27.9117 50.0785 27.4117 50.3785 27.1117C50.6785 26.8117 51.1785 26.8117 51.4785 27.1117C57.6785 33.5117 61.0785 37.2117 64.7785 41.1117L66.0785 42.5117C69.3785 46.1117 72.7785 49.6118 77.1785 54.2118C79.3785 56.8117 81.6785 59.4117 83.8785 62.1117C87.7785 66.6117 91.6785 71.2118 95.5785 75.8118C95.6785 75.9118 95.6785 76.0117 95.7785 76.1117C95.7785 76.2117 95.7785 76.3118 95.7785 76.4118C95.7785 76.6117 95.6785 76.8118 95.5785 77.0117C95.1785 77.7117 94.5785 78.5117 93.9785 79.2117C96.4785 81.4117 102.578 86.8117 104.978 91.1117C111.878 103.012 108.978 110.212 108.678 111.012C108.778 111.512 108.478 111.612 108.178 111.612ZM67.7785 64.6117C72.5785 68.7117 77.3785 72.8118 82.0785 76.9118C83.9785 78.6117 85.9785 80.2118 87.8785 81.9118C89.3785 79.6117 91.3785 77.6117 93.6785 76.1117C90.0785 71.8117 86.3785 67.6117 82.7785 63.3117C80.6785 60.8117 78.5785 58.4118 76.3785 55.9118C72.5785 58.0117 69.8785 60.6117 67.7785 64.6117ZM38.6785 37.8117C38.5785 37.8117 38.4785 37.8117 38.3785 37.7118C38.2785 37.7118 38.2785 37.6117 38.1785 37.6117C38.0785 37.5117 37.9785 37.4117 37.9785 37.3117C37.9785 37.2118 37.8785 37.1117 37.8785 37.0117C37.8785 36.9118 37.8785 36.8117 37.9785 36.8117C38.0785 36.5117 38.2785 36.2118 38.3785 35.9118C38.4785 35.7118 38.5785 35.5117 38.6785 35.2118C38.7785 35.0117 38.8785 34.8117 38.9785 34.6117L39.0785 34.4118C39.1785 34.2118 39.3785 34.0117 39.4785 33.7118C39.5785 33.6118 39.6785 33.4118 39.7785 33.2118L39.8785 33.1117C39.9785 32.9117 40.1785 32.7118 40.2785 32.5117C41.1785 31.2118 42.2785 30.1117 43.4785 29.1117C43.6785 29.0117 43.7785 28.8117 43.9785 28.7117L44.0785 28.6117L44.1785 28.5117C44.3785 28.4117 44.5785 28.2117 44.7785 28.1117C45.4785 27.6117 46.1785 27.2117 46.7785 26.9117C46.9785 26.8117 47.1785 26.7117 47.3785 26.6117C47.6785 26.5117 47.9785 26.3117 48.2785 26.2117C48.6785 26.0117 49.0785 26.2117 49.2785 26.6117C49.2785 26.7117 49.3785 26.8117 49.3785 26.9117C49.3785 27.2117 49.1785 27.5117 48.8785 27.6117C48.5785 27.7117 48.2785 27.9117 48.0785 28.0117C47.8785 28.1117 47.6785 28.2117 47.4785 28.3117C46.8785 28.6117 46.1785 29.0117 45.5785 29.5117C45.3785 29.6117 45.2785 29.7117 45.0785 29.8117L44.9785 29.9117L44.8785 30.0117C44.6785 30.1117 44.5785 30.2117 44.3785 30.4117C43.1785 31.3117 42.2785 32.4117 41.3785 33.6117C41.2785 33.8117 41.0785 34.0117 40.9785 34.2118L40.8785 34.3117C40.7785 34.4117 40.6785 34.6118 40.5785 34.7118C40.4785 34.9118 40.2785 35.1117 40.1785 35.3117C40.1785 35.3117 40.0785 35.4118 40.0785 35.5117C39.9785 35.6117 39.8785 35.8117 39.7785 36.0117C39.6785 36.2118 39.5785 36.4117 39.4785 36.6117C39.3785 36.9117 39.1785 37.2118 39.0785 37.5117C39.0785 37.6117 38.9785 37.7118 38.9785 37.7118C38.8785 37.8117 38.7785 37.8118 38.6785 37.9118C38.8785 37.8118 38.7785 37.8117 38.6785 37.8117ZM36.5785 36.2118C36.3785 36.2118 36.1785 36.1117 35.9785 36.0117L35.8785 35.9118C34.0785 33.6118 32.2785 31.3117 30.5785 29.1117C28.3785 26.3117 26.1785 23.4117 23.6785 20.3117C22.3785 18.6117 22.3785 16.2117 23.7785 14.6117C23.9785 14.3117 24.2785 14.1117 24.4785 13.8117C21.3785 10.7117 17.7785 6.81175 17.9785 5.51175C17.9785 5.11175 17.5785 3.51175 16.3785 2.41175C15.3785 1.51175 14.0785 1.31175 12.4785 1.81175C7.77846 3.11175 1.07846 6.21175 1.07846 6.21175C0.678461 6.41175 0.278461 6.21175 0.078461 5.81175C-0.121539 5.41175 0.078461 5.01175 0.478461 4.81175C0.778461 4.71175 7.27846 1.71175 12.0785 0.311748C14.6785 -0.488252 16.3785 0.411748 17.3785 1.21175C18.9785 2.51175 19.6785 4.61175 19.4785 5.61175C19.6785 6.31175 22.6785 9.81175 25.5785 12.7117C25.8785 12.4117 26.1785 12.2117 26.4785 11.9117C28.1785 10.5117 30.5785 10.5117 32.1785 11.8117C34.9785 14.0117 37.6785 16.1117 40.2785 18.1117C42.5785 19.9117 44.8785 21.7117 47.2785 23.6117C47.5785 23.9117 47.6785 24.3117 47.3785 24.7117C47.0785 25.1117 46.6785 25.1117 46.2785 24.8117C43.8785 22.9117 41.5785 21.1117 39.2785 19.3117C36.6785 17.3117 34.0785 15.2117 31.1785 13.0117C30.0785 12.1117 28.4785 12.1117 27.2785 13.0117C26.3785 13.8117 25.5785 14.6117 24.7785 15.5117C23.8785 16.6117 23.8785 18.2117 24.6785 19.4117C27.1785 22.5117 29.3785 25.4117 31.5785 28.2117C33.2785 30.4117 35.0785 32.7118 36.8785 35.0117C37.1785 35.3117 37.1785 35.7118 36.8785 36.0117C36.9785 36.2118 36.7785 36.2118 36.5785 36.2118Z" fill="#28425F"/>
<path d="M56.2785 98.3119C55.9785 98.3119 55.6785 98.1119 55.5785 97.7119C55.3785 97.0119 55.3785 96.3119 55.4785 95.8119C55.2785 89.5119 54.0785 83.6119 52.1785 79.4119C51.2785 77.5119 49.7785 76.3119 48.2785 74.9119C47.3785 74.2119 46.4785 73.4119 45.6785 72.5119C44.3785 71.1119 43.6785 69.6119 42.8785 67.8119C42.1785 66.2119 41.2785 64.9119 40.2785 63.5119C39.6785 62.7119 39.0785 61.9119 38.5785 61.0119C36.3785 57.5119 35.2785 53.2119 34.1785 49.4119L33.9785 49.0119C33.7785 48.3119 33.6785 47.7119 33.4785 47.0119C32.9785 45.1119 32.5785 43.3119 31.7785 41.6119C30.5785 38.8119 30.2785 36.8119 30.9785 35.5119C31.2785 35.0119 31.8785 34.3119 32.9785 34.1119C38.0785 33.6119 40.8785 38.1119 41.3785 42.5119C41.6785 42.8119 42.0785 43.2119 42.5785 43.7119C42.6785 43.8119 42.7785 43.9119 42.8785 44.0119C44.2785 45.4119 45.4785 46.8119 46.4785 48.3119C46.6785 48.6119 46.7785 48.8119 46.9785 49.0119C47.3785 49.6119 47.5785 50.0119 48.1785 50.3119L50.5785 51.4119C50.9785 51.6119 51.0785 52.0119 50.9785 52.4119C50.7785 52.8119 50.3785 52.9119 49.9785 52.8119L47.5785 51.7119C46.5785 51.2119 46.1785 50.5119 45.6785 49.8119C45.5785 49.6119 45.3785 49.4119 45.2785 49.1119C44.3785 47.7119 43.1785 46.4119 41.8785 45.0119C41.7785 44.9119 41.6785 44.8119 41.5785 44.6119C40.7785 43.7119 40.2785 43.2119 40.0785 43.2119C39.6785 43.2119 39.3785 42.9119 39.3785 42.5119C39.3785 42.2119 39.6785 41.9119 39.9785 41.8119C39.2785 38.3119 37.0785 35.2119 33.3785 35.6119C32.7785 35.7119 32.5785 36.0119 32.4785 36.2119C31.9785 37.0119 32.2785 38.8119 33.2785 41.0119C34.0785 42.8119 34.5785 44.8119 35.0785 46.6119C35.2785 47.2119 35.3785 47.9119 35.5785 48.5119L35.6785 48.9119C36.6785 52.8119 37.7785 56.8119 39.8785 60.1119C40.3785 60.9119 40.9785 61.7119 41.5785 62.5119C42.5785 63.9119 43.6785 65.3119 44.3785 67.0119C45.0785 68.6119 45.7785 70.0119 46.8785 71.2119C47.5785 72.0119 48.4785 72.8119 49.3785 73.5119C50.9785 74.9119 52.6785 76.3119 53.6785 78.5119C55.4785 82.5119 56.6785 87.8119 57.0785 93.6119C59.2785 92.1119 63.3785 92.3119 66.4785 92.5119C67.5785 92.6119 68.5785 92.6119 69.0785 92.5119C72.3785 92.2119 75.8785 91.3119 80.1785 89.9119C80.2785 89.9119 80.4785 89.8119 80.6785 89.7119C81.9785 89.2119 83.9785 88.4119 85.1785 89.3119C85.7785 89.7119 85.9785 90.4119 85.8785 91.4119C85.8785 91.8119 85.4785 92.1119 85.0785 92.1119C84.6785 92.1119 84.3785 91.7119 84.3785 91.3119C84.3785 90.9119 84.3785 90.6119 84.2785 90.6119C83.7785 90.2119 81.8785 91.0119 81.1785 91.2119C80.9785 91.3119 80.7785 91.4119 80.5785 91.4119C76.2785 92.9119 72.5785 93.8119 69.1785 94.1119C68.4785 94.2119 67.5785 94.1119 66.3785 94.1119C63.4785 94.0119 58.7785 93.8119 57.3785 95.4119C57.0785 95.6119 56.9785 95.8119 56.9785 96.0119C56.9785 96.5119 56.9785 97.0119 56.9785 97.4119C57.0785 97.8119 56.7785 98.2119 56.3785 98.2119C56.3785 98.3119 56.2785 98.3119 56.2785 98.3119ZM87.7785 50.5119C87.6785 50.5119 87.5785 50.5119 87.4785 50.4119C87.0785 50.2119 86.8785 49.8119 87.0785 49.4119C88.4785 45.9119 85.8785 43.3119 83.3785 40.8119C83.1785 40.6119 82.8785 40.3119 82.6785 40.1119C81.6785 39.0119 80.5785 37.9119 79.5785 36.6119C79.7785 36.9119 79.8785 37.2119 80.0785 37.4119C80.4785 38.1119 81.0785 38.7119 81.5785 39.3119C81.9785 39.7119 82.2785 40.1119 82.6785 40.5119C83.4785 41.5119 85.2785 44.3119 84.5785 47.1119C84.4785 47.5119 84.0785 47.8119 83.6785 47.7119C83.2785 47.6119 82.9785 47.2119 83.0785 46.8119C83.5785 44.6119 82.0785 42.3119 81.3785 41.4119C81.0785 41.0119 80.6785 40.6119 80.3785 40.2119C79.7785 39.6119 79.1785 38.9119 78.6785 38.0119C77.8785 36.7119 77.1785 35.3119 76.3785 33.8119C74.9785 31.1119 73.5785 28.4119 72.0785 25.6119C71.2785 24.0119 70.2785 22.5119 68.3785 22.1119C67.4785 21.9119 66.5785 21.8119 65.6785 21.6119C64.3785 21.4119 62.9785 21.2119 61.6785 20.8119C58.9785 20.0119 56.0785 19.8119 53.4785 20.3119C52.7785 20.4119 52.2785 20.7119 51.7785 20.9119C51.2785 21.2119 50.5785 21.5119 49.6785 21.7119H49.4785C47.8785 22.0119 47.5785 22.0119 47.6785 23.3119C47.6785 24.2119 47.9785 24.9119 48.5785 25.4119C49.9785 26.7119 52.6785 26.8119 54.9785 26.7119C54.6785 26.1119 54.5785 25.4119 54.5785 24.7119C54.5785 24.3119 54.8785 23.9119 55.2785 23.9119C55.6785 23.9119 56.0785 24.2119 56.0785 24.6119C56.0785 25.8119 56.6785 26.9119 57.6785 27.7119C58.6785 28.5119 59.8785 28.8119 61.1785 28.7119C61.2785 28.0119 61.5785 27.2119 61.9785 26.6119C62.1785 26.2119 62.6785 26.1119 62.9785 26.4119C63.3785 26.6119 63.4785 27.1119 63.1785 27.4119C62.7785 28.0119 62.5785 28.7119 62.5785 29.3119C62.5785 29.4119 62.5785 29.5119 62.5785 29.5119C62.5785 30.3119 62.6785 31.0119 62.8785 31.6119C63.5785 33.8119 65.2785 35.9119 67.1785 36.9119C67.5785 37.1119 67.6785 37.5119 67.4785 37.9119C67.2785 38.3119 66.8785 38.4119 66.4785 38.2119C64.1785 37.1119 62.1785 34.6119 61.3785 32.0119C61.1785 31.4119 61.0785 30.8119 61.0785 30.2119C59.4785 30.3119 57.9785 29.8119 56.7785 28.8119C56.4785 28.6119 56.1785 28.3119 55.9785 28.0119C53.3785 28.2119 49.6785 28.2119 47.6785 26.4119C46.7785 25.6119 46.2785 24.5119 46.2785 23.2119C46.1785 20.6119 47.7785 20.3119 49.3785 20.1119H49.5785C50.2785 20.0119 50.6785 19.7119 51.2785 19.5119C51.7785 19.2119 52.3785 18.9119 53.3785 18.7119C56.1785 18.1119 59.3785 18.3119 62.3785 19.2119C63.5785 19.6119 64.7785 19.7119 66.0785 19.9119C66.9785 20.0119 67.9785 20.2119 68.8785 20.4119C71.3785 21.0119 72.6785 22.9119 73.5785 24.7119C74.1785 25.9119 74.7785 27.1119 75.3785 28.2119C75.5785 28.2119 75.7785 28.3119 75.8785 28.5119C78.5785 32.5119 81.1785 35.8119 83.7785 38.5119C83.9785 38.7119 84.2785 39.0119 84.4785 39.2119C87.0785 41.8119 90.2785 45.0119 88.4785 49.4119C88.3785 50.4119 88.0785 50.5119 87.7785 50.5119Z" fill="#47A0FF"/>
</svg>
