<svg width="119" height="112" viewBox="0 0 119 112" fill="none" xmlns="http://www.w3.org/2000/svg">
<path d="M104.4 73.6024C105.3 80.0024 104.9 86.6024 104.3 93.0024C103.7 99.8024 100.1 104.802 94.1 108.202C88.9 111.202 81.9 112.102 76.2 110.002C70.2 107.702 68.6 101.002 67.3 95.4024C66.3 91.2024 65.1 83.8024 66.2 77.9024C67.1 73.3024 69.3 69.4024 74.1 68.6024C78.9 67.9024 92.8 67.5024 96.3 67.6024C101.3 67.8024 103.8 69.1024 104.4 73.6024ZM16.5 67.3024C13.7 65.9024 11.7 65.2024 8.7 66.5024C6.3 67.6024 4 69.0024 1.6 70.2024C1.6 70.2024 0 77.8024 0 89.5024C0 101.202 2.4 108.302 2.4 108.302C7.4 110.702 17.1 111.102 21.8 107.802C28.1 103.102 28.9 89.8024 28.5 82.8024C28.1 74.3024 23.5 70.9024 16.5 67.3024ZM106.1 72.8024C105.7 78.9024 106.3 90.5024 106.5 92.2024C107.5 98.5024 110.1 104.302 116 108.002C116 108.002 118.3 102.602 118.3 86.9024C118.3 71.2024 116.6 67.6024 116.6 67.6024C113.3 67.3024 106.5 66.7024 106.1 72.8024Z" fill="white"/>
<path d="M83 111.902C80.5 111.902 78.2 111.502 76 110.702C70.6 108.702 68.6 103.302 67.3 98.3025L64.2 97.7025C64.1 97.7025 54.2 96.4025 48 96.4025C44 96.4025 39 97.0025 36 97.4025C34 97.6025 33.3 97.7025 32.9 97.7025C27.8 98.7025 28 98.7025 27.9 98.7025C26.9 102.602 25.1 106.302 22.3 108.402C17.4 111.802 7.39997 111.502 2.09997 109.002C1.69997 108.802 1.59997 108.402 1.69997 108.002C1.89997 107.602 2.29997 107.502 2.69997 107.602C7.59997 109.902 17 110.202 21.4 107.202C28.4 102.102 27.9 86.0025 27.8 82.8025C27.4 75.1025 23.6 71.8025 16.2 68.0025C13.3 66.6025 11.6 66.1025 9.09997 67.2025C7.69997 67.8025 6.39997 68.5025 5.09997 69.2025C4.09997 69.8025 2.99997 70.3025 1.99997 70.8025C1.59997 71.0025 1.19997 70.8025 0.99997 70.4025C0.79997 70.0025 0.99997 69.6025 1.39997 69.4025C2.39997 68.9025 3.49997 68.3025 4.49997 67.8025C5.79997 67.1025 7.19997 66.3025 8.59997 65.7025C12 64.3025 14.3 65.2025 17 66.6025C23.5 69.9025 29 73.4025 29.5 82.6025C29.6 84.5025 29.8 90.9025 28.5 97.0025C29.8 96.7025 33 96.1025 33 96.1025C33.1 96.1025 33.2 96.1025 33.3 96.1025C33.6 96.1025 34.8 95.9025 36 95.8025C39 95.4025 44.1 94.8025 48.2 94.8025C54.4 94.8025 64.5 96.1025 64.6 96.1025L67.1 96.6025C67 96.2025 66.9 95.9025 66.9 95.5025C66.2 92.3025 64.6 84.2025 65.8 77.6025C66.9 71.9025 69.8 68.4025 74.3 67.7025C79.3 66.9025 93.4 66.6025 96.6 66.7025C101.3 66.8025 104.6 68.0025 105.4 73.3025C105.4 73.5025 105.5 73.8025 105.5 74.0025C105.5 73.5025 105.5 73.0025 105.6 72.5025C106.1 65.9025 113.2 66.3025 116.6 66.5025H117C117.4 66.5025 117.7 66.9025 117.7 67.3025C117.7 67.7025 117.3 68.0025 116.9 68.0025H116.5C111.9 67.7025 107.4 67.9025 107.1 72.6025C106.7 78.6025 107.2 90.0025 107.5 91.9025C107.7 93.5025 108.1 94.9025 108.5 96.3025V96.4025C110 101.202 112.7 104.802 116.6 107.202C117 107.402 117.1 107.902 116.8 108.202C116.6 108.602 116.1 108.702 115.8 108.402C111.7 105.902 108.8 102.102 107.1 97.1025C106.3 96.9025 105.1 96.9025 104.3 97.2025C102.8 102.002 99.5 105.902 94.6 108.802C91 110.902 86.9 111.902 83 111.902ZM94.6 68.3025C89.5 68.3025 78.3 68.7025 74.3 69.3025C70.4 69.9025 68 72.8025 67 78.0025C65.8 84.3025 67.4 92.2025 68.1 95.2025C69.4 100.902 70.8 107.202 76.5 109.302C81.7 111.302 88.5 110.602 93.7 107.602C99.7 104.102 102.9 99.3025 103.5 92.9025C104.1 86.7025 104.6 80.1025 103.6 73.7025C103 69.9025 101.2 68.5025 96.3 68.4025C95.9 68.3025 95.3 68.3025 94.6 68.3025ZM105.5 88.1025C105.4 89.8025 105.2 91.4025 105.1 93.1025C105 94.0025 104.9 94.9025 104.7 95.7025C105.3 95.6025 105.9 95.6025 106.5 95.7025C106.2 94.6025 106 93.5025 105.8 92.3025C105.7 91.7025 105.6 90.2025 105.5 88.1025ZM47.9 107.102C39.8 107.102 31.5 105.402 31.5 102.202C31.5 99.0025 39.7 97.3025 47.9 97.3025C56.1 97.3025 64.3 99.0025 64.3 102.202C64.3 105.402 56 107.102 47.9 107.102ZM47.9 98.9025C38.1 98.9025 33 101.102 33 102.302C33 103.502 38.1 105.702 47.9 105.702C57.7 105.702 62.8 103.502 62.8 102.302C62.8 101.102 57.6 98.9025 47.9 98.9025Z" fill="#28425F"/>
<path d="M49.8 78.7023V89.9023H44.8V78.7023L43.6 77.3023C43.6 77.3023 42.9 74.1023 42.2 69.5023C41.5 64.5023 34.2 46.0023 34.2 46.0023L37.1 44.2023C37.1 44.2023 38.6 23.1023 38.7 21.3023C38.8 19.5023 41.3 19.1023 41.3 19.1023H53.1C53.1 19.1023 55.6 19.5023 55.7 21.3023C55.8 23.1023 57.3 44.2023 57.3 44.2023L60.2 46.0023C60.2 46.0023 53 64.5023 52.2 69.5023C51.5 74.1023 50.8 77.3023 50.8 77.3023L49.8 78.7023Z" fill="#A4D1FF"/>
<path d="M57.5 44.3024C57.5 44.3024 56 23.2024 55.9 21.4024C55.8 19.6024 53.3 19.2024 53.3 19.2024H41.4C41.4 19.2024 38.9 19.6024 38.8 21.4024C38.7 23.2024 37.2 44.3024 37.2 44.3024L35.9 45.1024C39.6 45.6024 43.5 45.8024 47.6 45.8024C51.6 45.8024 55.4 45.5024 59 45.1024L57.5 44.3024Z" fill="#E5E8EB"/>
<path d="M52.5 41.6024C51.7 23.6024 47.5 23.2024 47.5 23.2024C47.5 23.2024 42.9 23.6024 42.1 41.6024C43.3 41.6024 51.3 41.6024 52.5 41.6024Z" fill="white"/>
<path d="M49.8 90.9024H44.8C44.4 90.9024 44.1 90.6024 44 90.2024L43 90.0024C42.6 90.0024 42.3 89.6024 42.3 89.2024C42.3 88.8024 42.7 88.5024 43.1 88.5024L44.1 88.6024V88.2024L43 88.1024C42.6 88.1024 42.3 87.7024 42.3 87.3024C42.3 86.9024 42.7 86.6024 43.1 86.6024L44.1 86.7024V86.3024H43C42.6 86.3024 42.3 85.9024 42.3 85.5024C42.3 85.1024 42.7 84.8024 43.1 84.8024L44.1 84.9024V84.5024L43 84.4024C42.6 84.4024 42.3 84.0024 42.3 83.6024C42.3 83.2024 42.7 82.9024 43.1 82.9024L44.1 83.0024V82.6024L43 82.5024C42.6 82.5024 42.3 82.1024 42.3 81.7024C42.3 81.3024 42.7 81.0024 43.1 81.0024L44.1 81.1024V80.7024L43 80.6024C42.6 80.6024 42.3 80.2024 42.3 79.8024C42.3 79.4024 42.7 79.1024 43.1 79.1024L44.1 79.2024V79.0024L43.1 77.8024C43 77.7024 43 77.6024 42.9 77.5024C42.9 77.5024 42.2 74.3024 41.5 69.7024C40.8 64.9024 33.6 46.6024 33.6 46.4024C33.5 46.1024 33.6 45.7024 33.9 45.5024L36.5 43.9024C36.7 40.9024 38 23.0024 38 21.4024C38.1 19.5024 40.1 18.7024 41.3 18.5024H41.4H53.2H53.3C54.5 18.7024 56.5 19.5024 56.6 21.4024C56.7 23.0024 58 41.0024 58.2 43.9024L60.8 45.5024C61.1 45.7024 61.2 46.1024 61.1 46.4024C61 46.6024 53.9 64.9024 53.2 69.7024C52.5 74.3024 51.8 77.5024 51.8 77.5024C51.8 77.6024 51.7 77.7024 51.6 77.8024L50.6 79.0024V79.7024L51.5 79.8024C51.9 79.8024 52.2 80.2024 52.2 80.6024C52.2 81.0024 51.8 81.3024 51.4 81.3024L50.6 81.2024V81.6024L51.5 81.7024C51.9 81.7024 52.2 82.1024 52.2 82.5024C52.2 82.9024 51.8 83.2024 51.4 83.2024L50.6 83.1024V83.5024L51.5 83.6024C51.9 83.6024 52.2 84.0024 52.2 84.4024C52.2 84.8024 51.8 85.1024 51.4 85.1024L50.6 85.0024V85.4024L51.5 85.5024C51.9 85.5024 52.2 85.9024 52.2 86.3024C52.2 86.7024 51.8 87.0024 51.4 87.0024L50.6 86.9024V87.3024L51.5 87.4024C51.9 87.4024 52.2 87.8024 52.2 88.2024C52.2 88.6024 51.8 88.9024 51.4 88.9024L50.6 88.8024V89.2024L51.5 89.3024C51.9 89.3024 52.2 89.7024 52.2 90.1024C52.2 90.5024 51.8 90.8024 51.4 90.8024L50.4 90.7024C50.2 90.8024 50 90.9024 49.8 90.9024ZM45.6 88.7024L49.1 89.0024V88.6024L45.6 88.3024V88.7024ZM45.6 86.8024L49.1 87.1024V86.7024L45.6 86.4024V86.8024ZM45.6 85.0024L49.1 85.3024V84.9024L45.6 84.6024V85.0024ZM45.6 83.1024L49.1 83.4024V83.0024L45.6 82.7024V83.1024ZM45.6 81.2024L49.1 81.5024V81.1024L45.6 80.8024V81.2024ZM45.6 79.3024L49.1 79.6024V78.7024C49.1 78.5024 49.2 78.3024 49.3 78.2024L50.4 76.9024C50.6 76.2024 51.2 73.3024 51.8 69.4024C52.5 64.9024 58.3 49.6024 59.6 46.3024L57.2 44.8024C57 44.7024 56.9 44.5024 56.8 44.2024C56.8 43.7024 56.2 35.3024 55.7 28.8024H39C38.6 34.7024 38.1 42.0024 38 43.9024C38 43.9024 38 43.9024 38.1 43.9024C38.2 43.9024 48.3 45.7024 54.3 44.5024C54.7 44.4024 55.1 44.7024 55.2 45.1024C55.3 45.5024 55 45.9024 54.6 46.0024C48.3 47.2024 38.3 45.5024 37.9 45.4024C37.7 45.4024 37.5 45.3024 37.4 45.1024L35.3 46.4024C36.6 49.6024 42.4 64.9024 43.1 69.5024C43.7 73.4024 44.3 76.3024 44.5 77.0024L45.6 78.3024C45.7 78.4024 45.8 78.6024 45.8 78.8024V79.3024H45.6ZM39.1 27.4024H55.5C55.3 24.4024 55.1 22.0024 55.1 21.4024C55 20.4024 53.5 20.0024 53.2 20.0024H41.5C41.2 20.1024 39.6 20.4024 39.6 21.4024C39.5 22.0024 39.4 24.4024 39.1 27.4024Z" fill="#47A0FF"/>
<path d="M102.9 13.2024C102.6 8.00238 101.5 3.50238 95.9 1.70238C92.3 0.502376 88.3 0.802376 84.6 0.802376C80.5 0.802376 76.1 0.602376 72.2 2.20238C62.2 6.40238 66.4 24.8024 69.8 32.4024C73.9 40.9024 85.5 40.2024 93.1 38.2024C102.1 35.1024 103.1 21.2024 102.9 13.2024C102.9 12.8024 102.9 13.7024 102.9 13.2024Z" fill="white"/>
<path d="M83.7 40.2024C77.5 40.2024 71.7 38.2024 69 32.7024C66.3 26.6024 63.4 14.7024 66.4 7.30237C67.5 4.50237 69.3 2.60237 71.9 1.50237C75.5 0.0023669 79.3 0.00236686 83.1 0.00236686C84.2 0.00236686 85.2 0.00236686 86.2 0.00236686C89.5 0.00236686 92.9 -0.0976331 96.1 1.00237C102.5 3.00237 103.3 8.30237 103.6 13.1024C103.8 21.4024 102.7 35.6024 93.2 38.7024C90.2 39.7024 86.9 40.2024 83.7 40.2024ZM81.6 1.50237C78.5 1.50237 75.3 1.60237 72.4 2.80237C70.3 3.70237 68.7 5.40237 67.7 7.80237C64.9 14.8024 67.8 26.4024 70.3 32.0024C73.9 39.5024 84.2 39.7024 92.7 37.3024C101.2 34.5024 102.2 21.1024 102 13.3024C102 13.3024 102 13.3024 102 13.2024V13.1024C101.6 7.60237 100.4 4.00237 95.5 2.40237C92.6 1.40237 89.3 1.50237 86.1 1.50237C85 1.50237 84 1.50237 82.9 1.50237C82.6 1.50237 82.1 1.50237 81.6 1.50237Z" fill="#28425F"/>
</svg>
