<svg width="119" height="77" viewBox="0 0 119 77" fill="none" xmlns="http://www.w3.org/2000/svg">
<path d="M104.5 37.7999C105.4 44.1999 105 50.7999 104.4 57.1999C103.8 63.9999 100.2 68.9999 94.2 72.3999C89 75.3999 82 76.2999 76.3 74.1999C70.3 71.8999 68.7 65.1999 67.4 59.5999C66.4 55.3999 65.2 47.9999 66.3 42.0999C67.2 37.4999 69.4 33.5999 74.2 32.7999C79 32.0999 92.9 31.6999 96.4 31.7999C101.4 31.9999 103.9 33.2999 104.5 37.7999ZM16.6 31.4999C13.8 30.0999 11.8 29.3999 8.8 30.6999C6.3 31.7999 4.1 33.1999 1.6 34.3999C1.6 34.3999 0 41.9999 0 53.6999C0 65.3999 2.4 72.4999 2.4 72.4999C7.4 74.8999 17.1 75.2999 21.8 71.9999C28.1 67.2999 28.9 53.9999 28.5 46.9999C28.2 38.4999 23.6 35.0999 16.6 31.4999ZM106.2 36.9999C105.8 43.0999 106.4 54.6999 106.6 56.3999C107.6 62.6999 110.2 68.4999 116.1 72.1999C116.1 72.1999 118.4 66.7999 118.4 51.0999C118.4 35.3999 116.7 31.7999 116.7 31.7999C113.4 31.4999 106.6 30.8999 106.2 36.9999Z" fill="white"/>
<path d="M48.2 76.1998C42.7 76.1998 36.9 74.4998 32 70.4998C31.7 70.1998 31.6 69.7998 31.9 69.3998C32.2 69.0998 32.6 68.9998 33 69.2998C40.4 75.3998 54.2 76.9998 61.6 69.9998C61.9 69.6998 62.4 69.6998 62.7 69.9998C63 70.2998 63 70.7998 62.7 71.0998C59.3 74.2998 54 76.1998 48.2 76.1998ZM83.1 76.0998C80.6 76.0998 78.3 75.6998 76.1 74.8998C71 72.9998 68.9 68.0998 67.7 63.2998C65.3 62.8998 64.2 63.3998 61.7 64.4998L61.4 64.5998C57.1 66.4998 52.3 67.4998 47.5 67.3998C41.6 67.2998 35.6 65.7998 30.7 63.0998C29.7 62.7998 28.8 62.6998 27.9 62.8998C26.9 66.7998 25.2 70.3998 22.3 72.4998C17.5 75.9998 7.49997 75.6998 2.19997 73.1998C1.79997 72.9998 1.69997 72.5998 1.79997 72.1998C1.99997 71.7998 2.39997 71.6998 2.79997 71.7998C7.69997 74.0998 17.1 74.3998 21.5 71.3998C24.1 69.4998 25.7 66.0998 26.6 62.3998C26.6 62.2998 26.6 62.1998 26.7 62.0998C28.2 55.8998 28 48.9998 27.9 47.0998C27.5 39.3998 23.7 36.0998 16.3 32.2998C13.4 30.8998 11.7 30.3998 9.19997 31.4998C7.79997 32.0998 6.49997 32.7998 5.19997 33.4998C4.09997 33.9998 3.09997 34.5998 1.99997 35.0998C1.59997 35.2998 1.19997 35.0998 0.99997 34.6998C0.79997 34.2998 0.99997 33.8998 1.39997 33.6998C2.39997 33.1998 3.49997 32.5998 4.49997 32.0998C5.79997 31.3998 7.09997 30.5998 8.59997 29.9998C12 28.5998 14.3 29.4998 17 30.8998C23.5 34.1998 29 37.6998 29.5 46.8998C29.6 48.7998 29.8 55.2998 28.4 61.3998C29.4 61.2998 30.4 61.4998 31.4 61.7998C31.5 61.7998 31.6 61.8998 31.6 61.8998C36.3 64.4998 41.9 65.8998 47.6 65.9998C52.1 65.9998 56.7 65.0998 60.9 63.2998L61.2 63.1998C63.6 62.1998 64.9 61.5998 67.4 61.7998C67.2 61.0998 67.1 60.4998 66.9 59.7998C66.2 56.5998 64.6 48.4998 65.8 41.8998C66.9 36.1998 69.8 32.6998 74.3 31.9998C79.3 31.1998 93.4 30.8998 96.6 30.9998C101.3 31.1998 104.6 32.2998 105.4 37.5998C105.4 37.7998 105.5 38.0998 105.5 38.2998C105.5 37.7998 105.5 37.2998 105.6 36.7998C106.1 30.1998 113.2 30.5998 116.6 30.7998H117C117.4 30.7998 117.7 31.1998 117.7 31.5998C117.7 31.9998 117.3 32.2998 116.9 32.2998H116.5C111.9 31.9998 107.4 32.1998 107.1 36.8998C106.7 42.8998 107.2 54.2998 107.5 56.1998C107.7 57.7998 108.1 59.1998 108.5 60.5998V60.6998C110 65.4998 112.7 69.0998 116.6 71.4998C117 71.6998 117.1 72.1998 116.8 72.4998C116.6 72.8998 116.1 72.9998 115.8 72.6998C111.7 70.1998 108.8 66.3998 107.1 61.3998C106.3 61.1998 105.1 61.1998 104.3 61.4998C102.8 66.2998 99.5 70.1998 94.6 73.0998C91.1 75.0998 87 76.0998 83.1 76.0998ZM69 62.7998C70.2 67.3998 72 71.7998 76.6 73.4998C81.8 75.4998 88.6 74.7998 93.8 71.7998C99.8 68.2998 103 63.5998 103.6 57.1998C104.2 50.9998 104.7 44.3998 103.7 37.9998C103.1 34.1998 101.3 32.7998 96.4 32.6998C92.8 32.5998 78.9 32.9998 74.4 33.6998C70.5 34.0998 68.1 36.9998 67.1 42.1998C65.9 48.4998 67.5 56.3998 68.2 59.3998C68.4 60.2998 68.6 61.2998 68.9 62.2998C69 62.3998 69 62.5998 69 62.7998ZM105.6 52.2998C105.5 53.9998 105.3 55.5998 105.2 57.2998C105.1 58.1998 105 59.0998 104.8 59.8998C105.4 59.7998 106 59.7998 106.6 59.8998C106.3 58.7998 106.1 57.6998 105.9 56.4998C105.8 55.8998 105.7 54.3998 105.6 52.2998Z" fill="#28425F"/>
<path d="M52.1 70.0999L55.4 73.8999C53.9 74.3999 52.3 74.7999 50.9 74.9999C47.6 75.3999 44.2 74.9999 41.2 73.7999L44.3 69.9999V68.1999L44.1 60.2999V59.5999L45.8 58.4999L48.4 57.8999L50.6 58.6999L52.1 59.3999L52.2 68.0999L52.1 70.0999Z" fill="#A4D1FF"/>
<path d="M55.5 74.5999C55.3 74.5999 55.1 74.5 54.9 74.3L51.7 70.5C51.6 70.4 51.5 70.2 51.5 70V60.7999C50.5 61.0999 49.1 61.2 48.2 61.2C47.4 61.2 46 61.0999 44.9 60.7999V70C44.9 70.2 44.8 70.4 44.7 70.5L41.6 74.0999C41.3 74.3999 40.9 74.4999 40.5 74.1999C40.2 73.8999 40.1 73.4999 40.4 73.0999L43.3 69.6999V59.9C43.3 59.8 43.3 59.6999 43.4 59.5999C43.4 59.4999 43.4 59.5 43.4 59.4C43.4 57.9 46.7 57.7 48.1 57.7C49.4 57.7 52.5 57.8 52.8 59.2C52.9 59.3 52.9 59.4999 52.9 59.5999V69.6999L56 73.3C56.3 73.6 56.2 74.1 55.9 74.4C55.8 74.6 55.6 74.5999 55.5 74.5999ZM45.8 59.5C46.4 59.6 47.2 59.7 48.1 59.7C49 59.7 49.9 59.6 50.4 59.5C49.8 59.4 49 59.2999 48.1 59.2999C47.2 59.2999 46.4 59.4 45.8 59.5Z" fill="#47A0FF"/>
<path d="M66.1 14.1999C65.8 8.99994 64.7 4.49993 59.1 2.69993C55.5 1.49993 51.5 1.79993 47.8 1.79993C43.7 1.79993 39.3 1.59993 35.4 3.19993C25.4 7.39993 29.6 25.7999 33 33.3999C37.1 41.8999 48.7 41.1999 56.3 39.1999C65.3 36.0999 66.3 22.1999 66.1 14.1999C66.1 13.7999 66.1 14.6999 66.1 14.1999Z" fill="white"/>
<path d="M46.9001 41.1999C40.7001 41.1999 34.9001 39.1999 32.3001 33.6999C29.6001 27.5999 26.7001 15.6999 29.7001 8.29993C30.8001 5.49993 32.6001 3.59993 35.2001 2.49993C38.7001 0.999925 42.5001 0.999925 46.3001 0.999925C47.4001 0.999925 48.4001 0.999925 49.5001 0.999925C52.8001 0.999925 56.2001 0.899925 59.4001 1.99993C65.8001 3.99993 66.6001 9.29993 66.9001 14.0999C67.1001 22.3999 66.0001 36.5999 56.5001 39.6999C53.4001 40.6999 50.1001 41.1999 46.9001 41.1999ZM44.8001 2.49993C41.7001 2.49993 38.5001 2.59993 35.6001 3.79993C33.5001 4.69993 31.9001 6.39993 30.9001 8.79993C28.1001 15.7999 31.0001 27.3999 33.5001 32.9999C37.1001 40.4999 47.4001 40.6999 55.9001 38.2999C64.4001 35.4999 65.4001 22.0999 65.2001 14.2999V14.1999V14.0999C65.0001 8.69993 63.8001 4.99993 58.9001 3.39993C56.0001 2.39993 52.7001 2.39993 49.5001 2.49993C48.4001 2.49993 47.4001 2.49993 46.3001 2.49993C45.8001 2.49993 45.3001 2.49993 44.8001 2.49993Z" fill="#47A0FF"/>
</svg>
