<svg width="120" height="96" viewBox="0 0 120 96" fill="none" xmlns="http://www.w3.org/2000/svg">
<path d="M105.4 56.9C106.3 63.3 105.9 69.9 105.3 76.3C104.7 83.1 101.1 88.1 95.1 91.5C89.9 94.5 82.9 95.4 77.2 93.3C71.2 91 69.6 84.3 68.3 78.7C67.3 74.5 66.1 67.1 67.2 61.2C68.1 56.6 70.3 52.7 75.1 51.9C79.9 51.2 93.8 50.8 97.3 50.9C102.3 51 104.8 52.4 105.4 56.9ZM17.5 50.6C14.7 49.2 12.7 48.5 9.69999 49.8C7.19999 50.9 4.99999 52.3 2.49999 53.5C2.49999 53.5 0.899994 61.1 0.899994 72.8C0.899994 84.5 3.29999 91.6 3.29999 91.6C8.29999 94 18 94.4 22.7 91.1C29 86.4 29.8 73.1 29.4 66.1C29.1 57.5 24.5 54.1 17.5 50.6ZM107.1 56C106.7 62.1 107.3 73.7 107.5 75.4C108.5 81.7 111.1 87.5 117 91.2C117 91.2 119.3 85.8 119.3 70.1C119.3 54.4 117.6 50.8 117.6 50.8C114.3 50.6 107.5 50 107.1 56Z" fill="white"/>
<path d="M49.1 95.2001C43.6 95.2001 37.8 93.5001 32.9 89.5001C32.6 89.2001 32.5 88.8001 32.8 88.4001C33.1 88.1001 33.5 88.0001 33.9 88.3001C41.3 94.4001 55.1 96.0001 62.5 89.0001C62.8 88.7001 63.3 88.7001 63.6 89.0001C63.9 89.3001 63.9 89.8001 63.6 90.1001C60.2 93.3001 54.9 95.2001 49.1 95.2001ZM84 95.2001C81.5 95.2001 79.2 94.8001 77 94.0001C71.9 92.1001 69.8 87.2001 68.6 82.4001C66.2 82.0001 65.1 82.5001 62.6 83.6001L62.3 83.7001C58 85.6001 53.2 86.6001 48.4 86.5001C42.5 86.4001 36.5 84.9001 31.6 82.2001C30.6 81.9001 29.7 81.8001 28.8 82.0001C27.8 85.9001 26.1 89.5001 23.2 91.6001C18.3 95.0001 8.29999 94.7001 2.99999 92.2001C2.59999 92.0001 2.49999 91.6001 2.59999 91.2001C2.79999 90.8001 3.19999 90.7001 3.59999 90.8001C8.49999 93.1001 17.9 93.4001 22.3 90.4001C24.9 88.5001 26.5 85.1001 27.4 81.4001C27.4 81.3001 27.4 81.2001 27.5 81.1001C29 74.9001 28.8 68.0001 28.7 66.1001C28.3 58.4001 24.5 55.1001 17.1 51.3001C14.2 49.9001 12.5 49.4001 9.99999 50.5001C8.59999 51.1001 7.29999 51.8001 5.99999 52.5001C4.99999 53.0001 3.99999 53.6001 2.89999 54.1001C2.49999 54.3001 2.09999 54.1001 1.89999 53.7001C1.69999 53.3001 1.89999 52.9001 2.29999 52.7001C3.29999 52.2001 4.39999 51.6001 5.39999 51.1001C6.69999 50.4001 8.09999 49.6001 9.49999 49.0001C12.9 47.6001 15.2 48.5001 17.9 49.9001C24.4 53.2001 29.9 56.7001 30.4 65.9001C30.5 67.8001 30.7 74.3001 29.3 80.4001C30.3 80.3001 31.3 80.5001 32.3 80.8001C32.4 80.8001 32.5 80.9001 32.5 80.9001C37.2 83.5001 42.8 84.9001 48.5 85.0001C53 85.0001 57.6 84.1001 61.8 82.3001L62.1 82.2001C64.5 81.2001 65.8 80.6001 68.3 80.8001C68.1 80.1001 68 79.5001 67.8 78.8001C67.1 75.6001 65.5 67.5001 66.7 60.9001C67.8 55.2001 70.7 51.7001 75.2 51.0001C80.2 50.2001 94.3 49.9001 97.5 50.0001C102.2 50.2001 105.5 51.3001 106.3 56.6001C106.3 56.8001 106.4 57.1001 106.4 57.3001C106.4 56.8001 106.4 56.3001 106.5 55.8001C107 49.2001 114.1 49.6001 117.5 49.8001H117.9C118.3 49.8001 118.6 50.2001 118.6 50.6001C118.6 51.0001 118.2 51.3001 117.8 51.3001H117.4C112.8 51.0001 108.3 51.2001 108 55.9001C107.6 61.9001 108.1 73.3001 108.4 75.2001C108.6 76.8001 109 78.2001 109.4 79.6001V79.7001C110.9 84.5001 113.6 88.1001 117.5 90.5001C117.9 90.7001 118 91.2001 117.7 91.5001C117.5 91.9001 117 92.0001 116.7 91.7001C112.6 89.2001 109.7 85.4001 108 80.4001C107.2 80.2001 106 80.2001 105.2 80.5001C103.7 85.3001 100.4 89.2001 95.5 92.1001C92 94.2001 87.9 95.2001 84 95.2001ZM69.9 81.8001C71.1 86.4001 72.9 90.8001 77.5 92.5001C82.7 94.5001 89.5 93.8001 94.7 90.8001C100.7 87.3001 103.9 82.6001 104.5 76.2001C105.1 70.0001 105.6 63.4001 104.6 57.0001C104 53.2001 102.2 51.8001 97.3 51.7001C93.7 51.6001 79.8 52.0001 75.3 52.7001C71.4 53.3001 69 56.2001 68 61.4001C66.8 67.7001 68.4 75.6001 69.1 78.6001C69.3 79.5001 69.5 80.5001 69.8 81.5001C69.9 81.5001 69.9 81.7001 69.9 81.8001ZM106.5 71.4001C106.4 73.1001 106.2 74.7001 106.1 76.4001C106 77.3001 105.9 78.2001 105.7 79.0001C106.3 78.9001 106.9 78.9001 107.5 79.0001C107.2 77.9001 107 76.8001 106.8 75.6001C106.7 75.0001 106.6 73.5001 106.5 71.4001Z" fill="#28425F"/>
<path d="M51.9 49.0001C51.9 49.0001 57.9 42.8001 57.5 33.8001C57.2 24.8001 59.9 3.5001 59.9 3.5001L56.6 0.600098H39.1L35.8 3.5001C35.8 3.5001 38.5 24.8001 38.2 33.8001C37.9 42.8001 43.8 49.0001 43.8 49.0001H51.9Z" fill="#A4D1FF"/>
<path d="M51.9 49.9H43.8C43.6 49.9 43.4 49.8 43.3 49.7L41.7 49.8C41.3 49.8 40.9 49.5 40.9 49.1C40.9 48.7 41.2 48.3 41.6 48.3H42.2C41.9 47.9 41.6 47.5 41.2 46.9L39.8 47C39.4 47 39 46.7 39 46.3C39 45.9 39.3 45.5 39.7 45.5H40.3C40 45 39.8 44.5 39.5 44L38.4 44.1C38 44.1 37.6 43.8 37.6 43.4C37.6 43 37.9 42.6 38.3 42.6H38.9C38.7 42.1 38.6 41.7 38.4 41.2L37.5 41.3C37.1 41.3 36.7 41 36.7 40.6C36.7 40.2 37 39.8 37.4 39.8H38C37.9 39.3 37.8 38.9 37.7 38.4L37 38.3C36.6 38.3 36.2 38 36.2 37.6C36.2 37.2 36.5 36.8 36.9 36.8H37.5C37.5 36.3 37.4 35.8 37.4 35.4H37C36.6 35.4 36.2 35.1 36.2 34.7C36.2 34.3 36.5 33.9 36.9 33.9H37.5C37.5 33.4 37.5 33 37.5 32.4H37C36.6 32.4 36.2 32.1 36.2 31.7C36.2 31.3 36.5 30.9 36.9 30.9H37.5C37.5 30.4 37.5 29.9 37.5 29.5H37C36.6 29.5 36.2 29.2 36.2 28.8C36.2 28.4 36.5 28 36.9 28H37.5C37.5 27.5 37.5 27 37.4 26.6H36.9C36.5 26.6 36.1 26.3 36.1 25.9C36.1 25.5 36.4 25.1 36.8 25.1H37.3C37.3 24.6 37.2 24.1 37.2 23.7H36.7C36.3 23.7 35.9 23.4 35.9 23C35.9 22.6 36.2 22.2 36.6 22.2H37.1C37.1 21.7 37 21.2 37 20.8H36.5C36.1 20.8 35.7 20.5 35.7 20.1C35.7 19.7 36 19.3 36.4 19.3H36.9C36.9 18.8 36.8 18.3 36.8 17.9H36.3C35.9 17.9 35.5 17.6 35.5 17.2C35.5 16.8 35.8 16.4 36.2 16.4H36.7C36.7 15.9 36.6 15.4 36.6 15H36.1C35.7 15 35.3 14.7 35.3 14.3C35.3 13.9 35.6 13.5 36 13.5H36.5C36.4 13 36.4 12.5 36.3 12.1H35.8C35.4 12.1 35 11.8 35 11.4C35 11 35.3 10.6 35.7 10.6H36.2C36.1 10.1 36.1 9.6 36 9.2H35.5C35.1 9.2 34.7 8.9 34.7 8.5C34.7 8.1 35 7.7 35.4 7.7H35.9C35.8 7.2 35.8 6.7 35.7 6.3H35.4C35 6.3 34.6 6 34.6 5.6C34.6 5.2 34.9 4.8 35.3 4.8H35.5C35.5 4.4 35.4 4.2 35.4 4.2V4.1C35.4 3.9 35.5 3.7 35.6 3.6L38.9 0.7C38.7 0.1 38.9 0 39.1 0H56.6C56.8 0 57 0.1 57.1 0.2L60.4 3.1C60.5 3.2 60.6 3.4 60.6 3.6V3.7C60.6 3.8 60.5 4.3 60.4 5.3H60.6C61 5.3 61.4 5.6 61.4 6C61.4 6.4 61.1 6.8 60.7 6.8H60.2C60.1 7.2 60.1 7.7 60 8.3H60.4C60.8 8.3 61.2 8.6 61.2 9C61.2 9.4 60.9 9.8 60.5 9.8L59.9 9.9C59.8 10.4 59.8 10.9 59.7 11.4H60.1C60.5 11.4 60.9 11.7 60.9 12.1C60.9 12.5 60.6 12.9 60.2 12.9L59.6 13C59.6 13.5 59.5 14 59.5 14.5H59.9C60.3 14.5 60.7 14.8 60.7 15.2C60.7 15.6 60.4 16 60 16L59.3 16.1C59.3 16.6 59.2 17.1 59.2 17.6H59.6C60 17.6 60.4 17.9 60.4 18.3C60.4 18.7 60.1 19.1 59.7 19.1L59 18.8C59 19.3 58.9 19.8 58.9 20.3H59.3C59.7 20.3 60.1 20.6 60.1 21C60.1 21.4 59.8 21.8 59.4 21.8L58.7 21.9C58.7 22.4 58.6 22.9 58.6 23.4H59C59.4 23.4 59.8 23.7 59.8 24.1C59.8 24.5 59.5 24.9 59.1 24.9L58.4 25C58.4 25.5 58.3 26 58.3 26.5H58.7C59.1 26.5 59.5 26.8 59.5 27.2C59.5 27.6 59.2 28 58.8 28L58.2 28.1C58.2 28.6 58.2 29.1 58.1 29.6H58.5C58.9 29.6 59.3 29.9 59.3 30.3C59.3 30.7 59 31.1 58.6 31.1H58C58 31.6 58 32.1 58 32.6H58.4C58.8 32.6 59.2 32.9 59.2 33.3C59.2 33.7 58.9 34.1 58.5 34.1H58C58 34.2 58 34.3 58 34.4C58 34.8 58 35.2 58 35.5H58.4C58.8 35.5 59.2 35.8 59.2 36.2C59.2 36.6 58.9 37 58.5 37L57.9 37.1C57.9 37.6 57.8 38.1 57.7 38.6H58.2C58.6 38.6 59 38.9 59 39.3C59 39.7 58.7 40.1 58.3 40.1L57.4 40.2C57.3 40.7 57.1 41.2 57 41.7H57.5C57.9 41.7 58.3 42 58.3 42.4C58.3 42.8 58 43.2 57.6 43.2L56.4 43.3C56.2 43.8 56 44.3 55.7 44.8H56.2C56.6 44.8 57 45.1 57 45.5C57 45.9 56.7 46.3 56.3 46.3L54.8 46.4C54.5 47 54.2 47.5 53.9 47.9H54.4C54.8 47.9 55.2 48.2 55.2 48.6C55.2 49 54.9 49.4 54.5 49.4L52.7 49.5C52.3 50 52 50.3 52 50.3C52.3 49.8 52.1 49.9 51.9 49.9ZM48.8 48.4H50V35C50 34.6 50.3 34.2 50.8 34.2C51.3 34.2 51.6 34.5 51.6 35V44.6H51.7L54.4 44.4C54.6 43.9 54.9 43.4 55.1 42.9L52.5 43C52.1 43 51.7 42.7 51.7 42.3C51.7 41.9 52 41.5 52.4 41.5L55.7 41.2C55.9 40.7 56 40.2 56.2 39.7L52.9 40C52.5 40 52.1 39.7 52.1 39.3C52.1 38.9 52.4 38.5 52.8 38.5L56.5 38.2C56.6 37.7 56.7 37.2 56.7 36.7L52.9 37C52.5 37 52.1 36.7 52.1 36.3C52.1 35.9 52.4 35.5 52.8 35.5L56.7 35.2C56.7 34.8 56.7 34.4 56.7 34C56.7 33.9 56.7 33.8 56.7 33.7L53.4 34C53 34 52.6 33.7 52.6 33.3C52.6 32.9 52.9 32.5 53.3 32.5L56.7 32.2C56.7 31.7 56.7 31.2 56.7 30.7L39 32.2C39 32.7 39 33.2 39 33.7L47 33.1C47.4 33.1 47.8 33.4 47.8 33.8C47.8 34.2 47.5 34.6 47.1 34.6L38.9 35.3C38.9 35.8 38.9 36.3 39 36.7L45.9 36.2C46.3 36.2 46.7 36.5 46.7 36.9C46.7 37.3 46.4 37.7 46 37.7L39.2 38.2C39.3 38.7 39.4 39.2 39.5 39.6L45.1 39.2C45.5 39.2 45.9 39.5 45.9 39.9C45.9 40.3 45.6 40.7 45.2 40.7L40 41C40.2 41.5 40.3 42 40.5 42.4L45.8 42C46.2 42 46.6 42.3 46.6 42.7C46.6 43.1 46.3 43.5 45.9 43.5L41.2 43.9C41.4 44.4 41.7 44.9 42 45.3L47.3 44.9C47.7 44.9 48.1 45.2 48.1 45.6C48.1 46 47.8 46.4 47.4 46.4L42.8 46.8C43.2 47.4 43.6 47.8 43.8 48.2L48 47.9C48.4 47.7 48.8 48 48.8 48.4ZM51.5 46V47.5L52.3 47.4C52.6 47 53 46.5 53.3 45.9L51.7 46C51.7 46 51.6 46 51.5 46ZM38.9 29.3C38.9 29.8 38.9 30.3 38.9 30.7L56.7 29.3C56.7 28.8 56.7 28.3 56.8 27.8L38.9 29.3ZM38.8 26.3C38.8 26.8 38.9 27.3 38.9 27.7L57 26.2C57 25.7 57.1 25.2 57.1 24.7L38.8 26.3ZM38.6 23.4C38.6 23.9 38.7 24.4 38.7 24.8L57.1 23.3C57.1 22.8 57.2 22.3 57.2 21.8L38.6 23.4ZM38.3 20.4C38.3 20.9 38.4 21.4 38.4 21.8L57.3 20.3C57.3 19.8 57.4 19.3 57.4 18.8L38.3 20.4ZM38.1 17.5C38.1 18 38.2 18.5 38.2 18.9L57.6 17.3C57.6 16.8 57.7 16.3 57.7 15.8L38.1 17.5ZM37.8 14.6C37.8 15.1 37.9 15.6 37.9 16L57.9 14.4C57.9 13.9 58 13.4 58 12.9L37.8 14.6ZM37.5 11.6C37.5 12.1 37.6 12.6 37.7 13L58.3 11.3C58.4 10.8 58.4 10.3 58.5 9.8L37.5 11.6ZM37.2 8.7C37.3 9.2 37.3 9.6 37.4 10.1L58.6 8.4C58.7 7.9 58.7 7.4 58.8 6.9L37.2 8.7ZM36.8 5.8C36.9 6.2 36.9 6.7 37 7.2L58.9 5.4C58.9 5 59 4.6 59 4.4H49.3C49.2 4.6 49 4.8 48.7 4.8L36.8 5.8ZM37.8 2.9H57.9L56.3 1.5H39.4L37.8 2.9Z" fill="#47A0FF"/>
</svg>
