<svg width="48" height="48" viewBox="0 0 48 48" fill="none" xmlns="http://www.w3.org/2000/svg">
<circle cx="24" cy="24" r="24" fill="#F5FAFF"/>
<circle cx="24" cy="24" r="18" fill="#47A0FF"/>
<path fill-rule="evenodd" clip-rule="evenodd" d="M24 37C31.1797 37 37 31.1797 37 24C37 16.8203 31.1797 11 24 11C16.8203 11 11 16.8203 11 24C11 31.1797 16.8203 37 24 37ZM24 39C32.2843 39 39 32.2843 39 24C39 15.7157 32.2843 9 24 9C15.7157 9 9 15.7157 9 24C9 32.2843 15.7157 39 24 39Z" fill="white"/>
<path d="M22.5007 25.6663L19.4999 22.3337L18 24L22.5007 29L30 20.6675L28.5012 19L22.5007 25.6663Z" fill="white"/>
</svg>
