<svg width="197" height="194" viewBox="0 0 197 194" fill="none" xmlns="http://www.w3.org/2000/svg">
<path opacity="0.1" d="M30.1421 190.775L160.399 3.22414H166.589L36.332 190.775H30.1421ZM38.2158 103.18C33.0127 103.18 28.0788 102.284 23.4139 100.493C18.9285 98.5224 14.8916 95.4771 11.3033 91.3571C7.89435 87.0579 5.11339 81.684 2.96038 75.2352C0.986794 68.6073 0 60.7255 0 51.5898C0 42.4541 0.986794 34.6618 2.96038 28.2131C5.11339 21.5852 7.89435 16.2112 11.3033 12.0912C14.8916 7.792 18.9285 4.74676 23.4139 2.95543C28.0788 0.98498 33.0127 -0.000244141 38.2158 -0.000244141C43.4189 -0.000244141 48.2632 0.98498 52.7486 2.95543C57.4135 4.74676 61.4504 7.792 64.8593 12.0912C68.4476 16.2112 71.2286 21.5852 73.2022 28.2131C75.3552 34.6618 76.4317 42.4541 76.4317 51.5898C76.4317 60.7255 75.3552 68.6073 73.2022 75.2352C71.2286 81.684 68.4476 87.0579 64.8593 91.3571C61.4504 95.4771 57.4135 98.5224 52.7486 100.493C48.2632 102.284 43.4189 103.18 38.2158 103.18ZM38.2158 98.6119C42.3424 98.6119 46.3793 97.8058 50.3265 96.1936C54.2737 94.5815 57.6826 92.0736 60.5533 88.6701C63.6034 85.2666 66.0255 80.8779 67.8197 75.5039C69.6138 70.1299 70.5109 63.5916 70.5109 55.8889V47.2906C70.5109 39.5879 69.6138 33.0496 67.8197 27.6756C66.0255 22.3017 63.6034 17.913 60.5533 14.5095C57.6826 11.1059 54.2737 8.5981 50.3265 6.98591C46.3793 5.37372 42.3424 4.56763 38.2158 4.56763C34.0893 4.56763 30.0524 5.37372 26.1052 6.98591C22.158 8.5981 18.6594 11.1059 15.6093 14.5095C12.7386 17.913 10.4062 22.3017 8.61202 27.6756C6.81785 33.0496 5.92076 39.5879 5.92076 47.2906V55.8889C5.92076 63.5916 6.81785 70.1299 8.61202 75.5039C10.4062 80.8779 12.7386 85.2666 15.6093 88.6701C18.6594 92.0736 22.158 94.5815 26.1052 96.1936C30.0524 97.8058 34.0893 98.6119 38.2158 98.6119ZM158.784 194C153.581 194 148.647 193.015 143.982 191.044C139.497 189.253 135.46 186.297 131.872 182.177C128.463 177.878 125.682 172.504 123.529 166.055C121.555 159.427 120.568 151.545 120.568 142.41C120.568 133.274 121.555 125.482 123.529 119.033C125.682 112.405 128.463 107.031 131.872 102.911C135.46 98.6119 139.497 95.5667 143.982 93.7754C148.647 91.8049 153.581 90.8197 158.784 90.8197C163.987 90.8197 168.832 91.8049 173.317 93.7754C177.982 95.5667 182.019 98.6119 185.428 102.911C189.016 107.031 191.797 112.405 193.77 119.033C195.924 125.482 197 133.274 197 142.41C197 151.545 195.924 159.427 193.77 166.055C191.797 172.504 189.016 177.878 185.428 182.177C182.019 186.297 177.982 189.253 173.317 191.044C168.832 193.015 163.987 194 158.784 194ZM158.784 189.432C162.911 189.432 166.948 188.626 170.895 187.014C174.842 185.401 178.251 182.894 181.122 179.49C184.172 176.087 186.594 171.698 188.388 166.324C190.182 160.95 191.079 154.412 191.079 146.709V138.111C191.079 130.408 190.182 123.87 188.388 118.496C186.594 113.122 184.172 108.733 181.122 105.329C178.251 101.926 174.842 99.418 170.895 97.8058C166.948 96.1937 162.911 95.3876 158.784 95.3876C154.658 95.3876 150.621 96.1937 146.673 97.8058C142.726 99.418 139.228 101.926 136.178 105.329C133.307 108.733 130.975 113.122 129.18 118.496C127.386 123.87 126.489 130.408 126.489 138.111V146.709C126.489 154.412 127.386 160.95 129.18 166.324C130.975 171.698 133.307 176.087 136.178 179.49C139.228 182.894 142.726 185.401 146.673 187.014C150.621 188.626 154.658 189.432 158.784 189.432Z" fill="white"/>
</svg>
