<svg width="55" height="55" viewBox="0 0 55 55" fill="none" xmlns="http://www.w3.org/2000/svg">
<path d="M26.5967 15.2992L26.7479 39.7539C26.7508 40.2156 27.1352 40.6001 27.597 40.603C28.0587 40.6058 28.4384 40.2261 28.4356 39.7644L28.2843 15.3096C28.2815 14.8479 27.897 14.4634 27.4353 14.4606C26.9736 14.4577 26.5938 14.8375 26.5967 15.2992Z" fill="#47A0FF"/>
<path d="M31.5757 27.5091C31.5865 29.2604 33.0363 30.7102 34.7956 30.729C36.5469 30.7399 37.9869 29.3159 37.976 27.5487C37.9654 25.8451 36.5159 24.4272 34.7565 24.4084C32.9973 24.4055 31.5651 25.7896 31.5757 27.5091ZM36.2724 27.5382C36.2776 28.382 35.621 29.0386 34.7693 29.0413C33.9255 29.0361 33.2606 28.3713 33.2474 27.5195C33.2426 26.7393 33.9391 26.0909 34.7511 26.0959C35.563 26.1009 36.2597 26.7659 36.2724 27.5382Z" fill="#47A0FF"/>
<path d="M23.4236 27.3791C23.4187 26.5831 23.1114 25.8011 22.5266 25.2004C22.5107 25.2003 22.5026 25.1923 22.4866 25.1763C21.1737 23.9741 19.176 24.0175 18.0135 25.2601C16.7709 26.4225 16.7276 28.4203 17.9297 29.7332C17.9298 29.7491 17.9378 29.7571 17.9538 29.7732C19.1872 30.9907 21.2011 30.9793 22.4669 29.7135C23.1077 29.0727 23.4208 28.2149 23.4236 27.3791ZM19.1485 28.5945C18.5795 27.9621 18.5975 27.0149 19.1912 26.4853C19.215 26.4615 19.2229 26.4536 19.2466 26.4299C19.7684 25.8441 20.7155 25.826 21.3479 26.3951C21.9007 26.9637 21.8666 27.8949 21.2574 28.504C20.9568 28.8047 20.5599 28.9773 20.1459 28.9748C19.7639 28.9883 19.4049 28.8508 19.1485 28.5945Z" fill="#47A0FF"/>
<path d="M14.9259 0.954338C14.5896 0.63385 14.0642 0.630599 13.7398 0.954962L0.899758 13.795C0.741532 13.9532 0.655296 14.1676 0.656674 14.3905C0.658053 14.6134 0.746947 14.8289 0.907142 14.9891C1.58807 15.6858 1.97589 16.6116 1.98219 17.6306C1.98849 18.6495 1.6201 19.5786 0.939732 20.259C0.781506 20.4172 0.695266 20.6316 0.696644 20.8545C0.698023 21.0774 0.786921 21.2928 0.947117 21.453L33.5468 54.0527C33.8752 54.3811 34.4165 54.3845 34.7409 54.0601C36.1649 52.6361 38.569 52.6509 40.0108 54.0927C40.3392 54.4211 40.8805 54.4245 41.2048 54.1001L54.0528 41.2521C54.3772 40.9278 54.3739 40.4024 54.0534 40.0661C52.6272 38.5607 52.6046 36.1964 54.0128 34.7882C54.179 34.6221 54.2652 34.4077 54.2559 34.1927C54.2546 33.9857 54.1737 33.7623 54.0054 33.5941L21.5013 0.994996C21.1729 0.666597 20.6475 0.663349 20.3151 0.979703C18.8116 2.41917 16.4472 2.39659 14.9259 0.954338ZM20.8354 2.73417L52.2582 34.236C50.9244 36.0984 50.9563 38.6778 52.3055 40.5965L40.5493 52.3527C38.6623 51.0038 36.0513 50.9876 34.1649 52.3133L2.67056 20.8189C3.32563 19.9075 3.66909 18.8111 3.66982 17.641C3.66253 16.4628 3.29757 15.37 2.63118 14.4505L14.3874 2.6943C16.3461 4.06761 18.9253 4.08356 20.8354 2.73417Z" fill="#47A0FF"/>
<path d="M10.7674 12.0172L17.2707 18.4256C17.5991 18.754 18.1403 18.7414 18.4647 18.4171C18.6308 18.2509 18.7171 18.0365 18.7078 17.8216C18.7064 17.5987 18.6175 17.3832 18.4414 17.2229L11.9381 10.8145C11.6097 10.4861 11.0685 10.4987 10.7441 10.823C10.4197 11.1474 10.439 11.6888 10.7674 12.0172Z" fill="#47A0FF"/>
<path d="M36.5902 37.7292L42.9986 44.2325C43.3271 44.5769 43.8684 44.5802 44.1927 44.2559C44.3669 44.0977 44.4451 43.8753 44.4358 43.6603C44.4345 43.4534 44.3536 43.23 44.2013 43.0619L37.7929 36.5585C37.4644 36.2142 36.9231 36.2109 36.5987 36.5352C36.2584 36.8595 36.2618 37.4008 36.5902 37.7292Z" fill="#47A0FF"/>
</svg>
