<svg width="54" height="54" viewBox="0 0 54 54" fill="none" xmlns="http://www.w3.org/2000/svg">
<path d="M22.1176 21.453C22.1097 21.4609 22.1018 21.4688 22.1018 21.4688L19.5208 24.0498C19.1962 24.3744 19.1995 24.9162 19.5282 25.2448L26.1974 31.914L25.374 32.7374C25.0494 33.062 25.0527 33.6037 25.3814 33.9323C25.71 34.261 26.2517 34.2643 26.5763 33.9397L27.3997 33.1163L28.4338 34.1504L27.6104 34.9738C27.2858 35.2984 27.2891 35.8401 27.6178 36.1688C27.9464 36.4974 28.4882 36.5008 28.8128 36.1762L29.6362 35.3528L32.7623 38.4789C33.091 38.8076 33.6327 38.8109 33.9573 38.4863C34.2819 38.1617 34.2786 37.62 33.9499 37.2914L30.8237 34.1652L34.5923 30.3966C34.9169 30.072 34.9136 29.5303 34.5849 29.2016C34.2563 28.873 33.7146 28.8696 33.3899 29.1942L29.6214 32.9628L28.5873 31.9288L30.5745 29.9415C32.7676 27.7485 32.6652 24.0834 30.3407 21.7588C28.0241 19.4422 24.4145 19.3004 22.1176 21.453ZM29.3722 28.7392L27.3849 30.7264L21.317 24.6584L23.2963 22.6791C24.92 21.1676 27.4938 21.2871 29.1531 22.9464C30.8124 24.6057 30.9081 27.2032 29.3722 28.7392Z" fill="white"/>
<path d="M24.8824 4.80478L18.0547 5.98931C17.7237 5.27827 17.3053 4.60652 16.7837 3.9899C16.7757 3.98188 16.7757 3.98188 16.7677 3.97386C13.7591 0.537737 8.6242 -0.211008 4.82348 2.22702C2.91891 3.41017 1.48035 5.23349 0.784395 7.34023C0.0806243 9.47082 0.190427 11.7658 1.07135 13.8026C1.2572 14.226 1.7524 14.4361 2.18141 14.2476C2.6025 14.067 2.80657 13.5744 2.61271 13.143C1.1419 9.75621 2.47888 5.67781 5.72461 3.66652L5.73252 3.6586C8.82704 1.67027 13.0211 2.28574 15.484 5.08119C15.773 5.43349 16.0221 5.79351 16.2476 6.17729L7.71309 7.0326C7.31506 7.07794 7.00629 7.38671 6.96888 7.77682L4.8043 24.8669C4.77401 25.1216 4.87118 25.3771 5.04753 25.5535L32.7983 53.3043C33.127 53.6329 33.6687 53.6363 33.9933 53.3117L53.3113 33.9937C53.6359 33.6691 53.6325 33.1274 53.3039 32.7987L25.5531 5.04792C25.3927 4.87167 25.1452 4.78251 24.8824 4.80478ZM51.547 33.3853L33.4087 51.5236L6.53962 24.6546L8.59136 8.63925L16.9347 7.79868C17.2766 8.9798 17.3162 10.2228 17.0688 11.4321C16.6618 11.326 16.2393 11.2676 15.8092 11.2809C14.5266 11.2809 13.3507 11.7835 12.4799 12.6703C11.6409 13.5414 11.1859 14.6857 11.2332 15.8889C11.2728 17.1319 11.814 18.3381 12.7194 19.1802C13.5928 20.0061 14.7347 20.4513 15.9215 20.4188C17.1246 20.4502 18.2531 20.0111 19.1242 19.172C19.14 19.1562 19.1558 19.1404 19.1717 19.1245C20.0426 18.2537 20.5133 17.0935 20.5135 15.8269C20.5134 15.8109 20.5134 15.8109 20.5133 15.795C20.4737 14.552 19.9325 13.3458 19.0271 12.5037C18.9069 12.3835 18.7708 12.2791 18.6347 12.1747C19.0079 10.6793 19.014 9.10207 18.6304 7.61002L24.6619 6.50022L51.547 33.3853ZM16.5721 16.1291C16.5879 16.1133 16.5958 16.1053 16.6116 16.0895C17.197 15.424 17.6784 14.6861 18.04 13.9076C18.5213 14.4364 18.8044 15.1312 18.8327 15.8404C18.8298 16.6609 18.5158 17.4077 17.9456 17.9619C17.3992 18.4922 16.692 18.7666 15.935 18.7381C15.9191 18.738 15.9031 18.7379 15.8872 18.7378C15.1464 18.7571 14.4358 18.4898 13.8829 17.9686C13.306 17.4233 12.9666 16.6564 12.9379 15.8676C12.9173 15.1187 13.1917 14.4114 13.7141 13.857C13.722 13.849 13.7378 13.8332 13.7457 13.8253C14.2999 13.2711 15.0469 12.973 15.8515 12.97C15.8674 12.9701 15.8674 12.9701 15.8833 12.9702C16.1143 12.9637 16.3455 12.989 16.5689 13.0382C16.2625 13.7293 15.8521 14.3641 15.338 14.9584C15.0295 15.315 15.0647 15.8409 15.4172 16.1618C15.7536 16.4666 16.2554 16.4458 16.5721 16.1291Z" fill="white"/>
</svg>
