<svg width="100" height="29" viewBox="0 0 100 29" fill="none" xmlns="http://www.w3.org/2000/svg">
<path d="M12.1838 3.33782H10.253C6.72055 3.33782 4.84957 5.11899 4.84957 7.73836C4.84957 10.717 6.13681 12.109 8.78611 13.8752L10.9714 15.327L4.68493 24.667H0L5.64287 16.3149C2.39485 14.0248 0.568777 11.7946 0.568777 7.99282C0.568777 3.23305 3.89163 0 10.223 0H16.5095V24.6819H12.1838V3.33782Z" fill="#FC3F1D"/>
<path d="M51.5791 6.82544H39.1708V8.35216C39.1708 12.7228 38.8864 18.3656 37.3896 21.3442H36.0724V28.7683H40.009V24.682H49.5435V28.7683H53.48V21.3442H51.5791V6.82544ZM47.3282 21.3442H41.3261C42.5086 18.65 42.8229 13.7855 42.8229 10.6871V10.1483H47.3282V21.3442Z" fill="black"/>
<path d="M30.0255 13.8903H24.3377V6.82544H20.0868V24.682H24.3377V17.2281H30.0255V24.682H34.2763V6.82544H30.0255V13.8903Z" fill="black"/>
<path d="M95.8838 9.80389C97.5303 9.80389 99.1319 10.3727 100 10.9115V7.31923C99.1019 6.82529 97.5303 6.46606 95.4198 6.46606C89.9865 6.46606 87.1576 10.3427 87.1576 15.776C87.1576 21.7482 89.9117 25.0411 95.5995 25.0411C97.5602 25.0411 98.9672 24.6819 100 23.9335V20.4909C98.9223 21.2393 97.6351 21.7033 95.8539 21.7033C92.8154 21.7033 91.5582 19.3534 91.5582 15.6713C91.5582 11.7946 93.0849 9.80389 95.8838 9.80389Z" fill="black"/>
<path d="M86.5889 6.82544H82.2931L76.291 15.0577V6.82544H72.0401V24.682H76.291V15.9109L82.5775 24.682H87.4121L80.5718 15.0577L86.5889 6.82544Z" fill="black"/>
<path d="M62.1614 6.46606C56.9825 6.46606 54.5128 10.4026 54.5128 15.806C54.5128 22.0176 57.5812 25.0411 63.0145 25.0411C65.7387 25.0411 67.7294 24.3376 68.9867 23.4845V20.0419C67.6695 20.925 65.4543 21.7183 63.3738 21.7183C60.2605 21.7183 59.078 20.2664 58.8984 17.2728H69.1513V15.0426C69.1663 8.80104 66.4272 6.46606 62.1614 6.46606ZM64.8406 14.1296H58.9134C59.0181 11.2857 60.0509 9.80389 62.1015 9.80389C64.212 9.80389 64.8556 11.5402 64.8556 13.7853V14.1296H64.8406Z" fill="black"/>
</svg>
