<svg width="90" height="22" viewBox="0 0 90 22" fill="none" xmlns="http://www.w3.org/2000/svg">
<path d="M0.725806 0.733333H19.4516C20.0323 0.733333 20.3226 1.02667 20.3226 1.46667V5.13333C20.3226 5.57333 20.1774 6.16 19.7419 6.45333L9.29032 15.2533H19.5968C20.0323 15.2533 20.3226 15.5467 20.3226 15.9867V20.5333C20.3226 20.9733 20.0323 21.2667 19.5968 21.2667H0.725806C0.290323 21.2667 0 20.9733 0 20.5333V16.8667C0 16.4267 0.145161 15.84 0.580645 15.5467L11.0323 6.74667H0.725806C0.290323 6.6 0 6.30667 0 5.72V1.46667C0 1.02667 0.290323 0.733333 0.725806 0.733333ZM33.3871 0C35.5645 0 37.4516 0.44 39.0484 1.32C40.6452 2.2 41.9516 3.52 42.8226 5.13333C43.6936 6.74667 44.129 8.65333 44.129 10.8533C44.129 13.0533 43.6936 14.96 42.8226 16.5733C41.9516 18.1867 40.6452 19.5067 39.0484 20.3867C37.4516 21.56 35.5645 22 33.3871 22C31.2097 22 29.3226 21.56 27.7258 20.68C26.129 19.8 24.8226 18.48 23.9516 16.8667C23.0806 15.2533 22.6452 13.3467 22.6452 11.1467C22.6452 8.94667 23.0806 7.04 23.9516 5.42667C24.8226 3.81333 26.129 2.49333 27.7258 1.61333C29.3226 0.733333 31.2097 0 33.3871 0ZM33.3871 5.86667C32.371 5.86667 31.5 6.16 30.629 6.45333C29.9032 6.89333 29.3226 7.48 28.8871 8.21333C28.4516 8.94667 28.3065 9.82667 28.3065 11C28.3065 12.1733 28.5968 12.9067 28.8871 13.7867C29.1774 14.6667 29.9032 15.1067 30.629 15.5467C31.3548 15.9867 32.2258 16.1333 33.3871 16.1333C34.5484 16.1333 35.2742 15.84 36.1452 15.5467C36.871 15.1067 37.4516 14.52 37.8871 13.7867C38.3226 13.0533 38.4677 12.1733 38.4677 11C38.4677 9.82667 38.1774 9.09333 37.8871 8.21333C37.5968 7.33333 36.871 6.89333 36.1452 6.45333C35.2742 6.16 34.4032 5.86667 33.3871 5.86667ZM56.6129 0C58.7903 0 60.6774 0.44 62.2742 1.32C63.871 2.2 65.1774 3.52 66.0484 5.13333C66.9194 6.74667 67.3548 8.65333 67.3548 10.8533C67.3548 13.0533 66.9194 14.96 66.0484 16.5733C65.1774 18.1867 63.871 19.5067 62.2742 20.3867C60.6774 21.56 58.7903 22 56.6129 22C54.4355 22 52.5484 21.56 50.9516 20.68C49.3548 19.8 48.0484 18.48 47.1774 16.8667C46.3065 15.2533 45.871 13.3467 45.871 11.1467C45.871 8.94667 46.3065 7.04 47.1774 5.42667C48.0484 3.81333 49.3548 2.49333 50.9516 1.61333C52.5484 0.733333 54.4355 0 56.6129 0ZM56.6129 5.86667C55.5968 5.86667 54.7258 6.16 53.8548 6.45333C53.129 6.89333 52.5484 7.48 52.1129 8.21333C51.6774 8.94667 51.5323 9.82667 51.5323 11C51.5323 12.1733 51.8226 12.9067 52.1129 13.7867C52.4032 14.6667 53.129 15.1067 53.8548 15.5467C54.5806 15.9867 55.4516 16.1333 56.6129 16.1333C57.7742 16.1333 58.5 15.84 59.371 15.5467C60.0968 15.1067 60.6774 14.52 61.1129 13.7867C61.5484 13.0533 61.6936 12.1733 61.6936 11C61.6936 9.82667 61.4032 9.09333 61.1129 8.21333C60.8226 7.33333 60.0968 6.89333 59.371 6.45333C58.5 6.16 57.629 5.86667 56.6129 5.86667ZM90 1.46667V20.5333C90 20.9733 89.7097 21.2667 89.2742 21.2667H85.6452C85.2097 21.2667 84.629 21.12 84.3387 20.68L75.629 10.12V20.5333C75.629 20.9733 75.3387 21.2667 74.9032 21.2667H70.6936C70.2581 21.2667 69.9677 20.9733 69.9677 20.5333V1.46667C69.9677 1.02667 70.2581 0.733333 70.6936 0.733333H74.3226C74.7581 0.733333 75.3387 0.88 75.629 1.32L84.3387 11.88V1.46667C84.3387 1.02667 84.629 0.733333 85.0645 0.733333H89.2742C89.7097 0.733333 90 1.02667 90 1.46667Z" fill="url(#paint0_linear)"/>
<defs>
<linearGradient id="paint0_linear" x1="69.6143" y1="11.0007" x2="19.627" y2="11.0007" gradientUnits="userSpaceOnUse">
<stop stop-color="#6339F5"/>
<stop offset="1" stop-color="#3D3F55"/>
</linearGradient>
</defs>
</svg>
